<svg id="Layer_1" data-name="Layer 1" xmlns="http://www.w3.org/2000/svg" viewBox="0 0 148.64 33.31"><defs><style>.cls-1,.cls-2{fill:#fff;}.cls-1{fill-rule:evenodd;}</style></defs><title>HAB</title><path class="cls-1" d="M48.61,28.34h1.16c3.58.31,3.07,4.71,3,8.67,5.06.16,11.49-.64,15.37,1.15a11.41,11.41,0,0,1,4,3.35c.86,1.17,2.32,3.67,2.19,5.08-.08.88-1.24,1.68-1.73,2.66a11.19,11.19,0,0,0-.35,7.85,28.93,28.93,0,0,0,1.74,3,3.94,3.94,0,0,1-2.31,1.38H70.45c-4.75-.59-2.41-8.1-3-12.93a5.05,5.05,0,0,0-2.77-4.05c-3.06-1.31-7.59.27-11.78-.34-.21,2.08-.12,4.74-.12,7.51,0,4.65.84,9.21-2.89,9.81H48.61a3.93,3.93,0,0,1-3-2.65V31A4.06,4.06,0,0,1,48.61,28.34Z" transform="translate(-45.61 -28.34)"/><path class="cls-2" d="M100.45,51.06a77.71,77.71,0,0,1-.12-10.35c0-.53,0-1.07,0-1.61l-.26-.2a9.88,9.88,0,0,0-2.29-1.23,14.19,14.19,0,0,0-2.54-.74l-.4,0-.39,0H80.11a2.45,2.45,0,0,0-1.27.33,4,4,0,0,0-1,.84,3.79,3.79,0,0,0-.65,1.14A3.73,3.73,0,0,0,77,40.42a3.9,3.9,0,0,0,.52,2,3.05,3.05,0,0,0,1.58,1.35,8.64,8.64,0,0,0,.83.3H94a4.29,4.29,0,0,1,.55.14c.34.1.59.17.75.23a2.25,2.25,0,0,1,1,.73,1.72,1.72,0,0,1,.42,1.1v7.84H80.53q-.34,0-.42-.21a1.06,1.06,0,0,1-.09-.45.79.79,0,0,1,.17-.52.6.6,0,0,1,.5-.21H92.36l.59-.21a3.77,3.77,0,0,0,1.67-1.32,3.57,3.57,0,0,0,.59-2A3.89,3.89,0,0,0,95,47.84a3.82,3.82,0,0,0-.63-1.16,3.63,3.63,0,0,0-1-.84,2.64,2.64,0,0,0-1.3-.33h-12a4.75,4.75,0,0,0-1,.14c-.39.1-.74.21-1,.32a7.11,7.11,0,0,0-3.85,2.87,8.16,8.16,0,0,0-1.34,4.63A8,8,0,0,0,74,57.83a7.43,7.43,0,0,0,3.48,2.89c.28.11.66.24,1.15.38a4.58,4.58,0,0,0,1.19.21h21.2A2,2,0,0,0,102,61a4.45,4.45,0,0,0,1.66-1.64,1.82,1.82,0,0,0,.28-.94v-.08A12.1,12.1,0,0,1,100.45,51.06Z" transform="translate(-45.61 -28.34)"/><path class="cls-1" d="M104.07,28.34h1.16c4.26.47,3.12,6.5,3.12,12.13,0,5.87-1.06,12.43,3,13.63,1.09.33,3.29.12,5.08.12,3.69,0,6.66.26,8-2,1.44-2.45.73-6-1.38-7.28a8.12,8.12,0,0,0-2.78-.81c-2.67-.31-7.06.51-8.66-.35-2.36-1.26-2.16-5.38.23-6.46,1.76-.81,8.09-.59,10.17-.24,2.82.49,4.13,1.49,6.12,2.66-.19,6-.19,12.9,0,18.94a15.46,15.46,0,0,1-6.24,2.78H111.58A12,12,0,0,1,101.18,51c-.51-5,0-10.29,0-15.37C101.18,31.69,100.81,28.92,104.07,28.34Z" transform="translate(-45.61 -28.34)"/><path class="cls-1" d="M139.62,28.51h1.15c3.57.27,3.06,4.63,3,8.54,2.34.42,5.28-.33,6.93.58,2.37,1.31,2.37,5.49-.34,6.58-1.91.78-3.81-.08-6.35.24a82.25,82.25,0,0,0,0,9.93,32.78,32.78,0,0,0,4.27.12,11.13,11.13,0,0,0,1.15,3.81c.56,1,1.47,1.69,1.74,2.65a8.13,8.13,0,0,0-1.27.7h-7.05c-2.43-.52-5.65-2.85-6.12-6.36s0-8,0-12.24V36.82c0-2.17-.36-4.74,0-6S138.75,28.84,139.62,28.51Z" transform="translate(-45.61 -28.34)"/><path class="cls-1" d="M181.43,28.51h1.15c3.59.3,3.07,4.71,3,8.66,3.5-.07,8.34-.5,8.66,3v1.39c-.41,3.4-4.67,2.95-8.55,2.89v9.81c3.44.49,8.36-.5,8.55,3.24v1.27a4.14,4.14,0,0,1-2.54,2.89h-7.05a8,8,0,0,1-6.23-6.93c-.5-5.38,0-12.29,0-18C178.43,32.21,178.13,29,181.43,28.51Z" transform="translate(-45.61 -28.34)"/><path class="cls-1" d="M133,61.49h-1.27a3.78,3.78,0,0,1-2.88-2.42c-.67-2.51-.12-6.49-.12-9.82v-5c0-1.68-.26-3.71.12-5,.85-2.84,6.24-3.06,6.93,0,.33,1.48,0,3.43,0,5v14.9A4.08,4.08,0,0,1,133,61.49Z" transform="translate(-45.61 -28.34)"/><path class="cls-1" d="M177.39,61.66H156c-3.75-1-6.13-3.33-6.47-6.82a7.88,7.88,0,0,1,3.12-7.51c2.44-1.63,5.89-1.5,10.39-1.5,1.92,0,4.82-.32,6.13.23,2.81,1.19,2.45,6.34-.7,6.93-2.69.51-6.9,0-9.7,0-.77,0-2.32-.35-2.08,1.16,4.85.54,10.7.08,15.94.23V46.06c-1.43-2.45-5.48-1.73-9.47-1.73-2.26,0-4.91.42-6.93,0-3.13-.65-3.36-5.8-.46-6.93,1.37-.54,4.83-.23,7.16-.23,2.48,0,5.34-.14,7.39,0s6.44,1.63,6.93,3.23a18.12,18.12,0,0,1,0,3.7c0,6.34-.79,13,2.2,15.94A5.68,5.68,0,0,1,177.39,61.66Z" transform="translate(-45.61 -28.34)"/></svg>