<?xml version="1.0" encoding="utf-8"?>
<!-- Generator: Adobe Illustrator 22.0.1, SVG Export Plug-In . SVG Version: 6.00 Build 0)  -->
<svg version="1.1" id="Layer_1" xmlns="http://www.w3.org/2000/svg" xmlns:xlink="http://www.w3.org/1999/xlink" x="0px" y="0px"
	 viewBox="0 0 50 50" style="enable-background:new 0 0 50 50;" xml:space="preserve">
<style type="text/css">
	.st0{fill:#FFFFFF;}
</style>
<path class="st0" d="M18.5,7.8c-5.1,0-9.3,4.2-9.3,9.3v14.3c0,5.1,4.2,9.3,9.3,9.3h14.3c5.1,0,9.3-4.2,9.3-9.3V17.2
	c0-5.1-4.2-9.3-9.3-9.3H18.5z M18.5,9.3h14.3c4.4,0,7.9,3.5,7.9,7.9v14.3c0,4.4-3.5,7.9-7.9,7.9H18.5c-4.4,0-7.9-3.5-7.9-7.9V17.2
	C10.6,12.8,14.1,9.3,18.5,9.3z M35,13.6c-0.8,0-1.4,0.6-1.4,1.4s0.6,1.4,1.4,1.4s1.4-0.6,1.4-1.4S35.8,13.6,35,13.6z M25.7,15.7
	c-4.7,0-8.6,3.9-8.6,8.6s3.9,8.6,8.6,8.6s8.6-3.9,8.6-8.6S30.4,15.7,25.7,15.7z M25.7,17.2c4,0,7.2,3.2,7.2,7.2s-3.2,7.2-7.2,7.2
	s-7.2-3.2-7.2-7.2S21.7,17.2,25.7,17.2z"/>
</svg>
