<?xml version="1.0" encoding="utf-8"?>
<!-- Generator: Adobe Illustrator 22.0.1, SVG Export Plug-In . SVG Version: 6.00 Build 0)  -->
<svg version="1.1" id="Layer_1" xmlns="http://www.w3.org/2000/svg" xmlns:xlink="http://www.w3.org/1999/xlink" x="0px" y="0px"
	 viewBox="0 0 100 100" style="enable-background:new 0 0 100 100;" xml:space="preserve">
<style type="text/css">
	.st0{fill:#FFFFFF;}
	.st1{fill:none;stroke:#FFFFFF;stroke-width:6;stroke-miterlimit:10;}
	.st2{fill:#FFFFFF;stroke:#000000;stroke-width:12;stroke-miterlimit:10;}
</style>
<g>
	<path class="st0" d="M71.5,90.3h-43c-10.3,0-18.8-8.5-18.8-18.8v-43c0-10.3,8.5-18.8,18.8-18.8h43c10.3,0,18.8,8.5,18.8,18.8v43
		C90.3,81.8,81.8,90.3,71.5,90.3z"/>
	<path class="st0" d="M78.1,30.8h-5.4c-1.5,0-2.7-1.2-2.7-2.7v-5.4c0-1.5,1.2-2.7,2.7-2.7h5.4c1.5,0,2.7,1.2,2.7,2.7v5.4
		C80.7,29.6,79.5,30.8,78.1,30.8z"/>
	<line class="st1" x1="8" y1="38" x2="92" y2="38"/>
	<circle class="st2" cx="50" cy="50" r="17.5"/>
</g>
</svg>
