<svg xmlns="http://www.w3.org/2000/svg" viewBox="0 0 154.8 20"><title id="bolster-title">Built by Bolster.</title><path d="M5.7.6c3 0 4.8 1.7 4.8 4.1 0 1.6-1 2.8-2.2 3.3 1.4.3 2.7 1.6 2.7 3.6 0 2.5-1.9 4.3-4.8 4.3H0V.6h5.7zm-.5 6.1c1.2 0 2-.6 2-1.7 0-1-.7-1.6-2-1.6H3.4v3.3h1.8zm.3 6.4c1.3 0 2.1-.7 2.1-1.8s-.8-1.8-2.1-1.8H3.4v3.6h2.1zm14.2 1.7c-.6.9-1.8 1.3-2.8 1.3-2.6 0-4.1-1.9-4.1-4.2V5.2h3.3v6.1c0 1 .6 1.9 1.7 1.9s1.8-.7 1.8-1.8V5.3h3.3v8.8c0 1 .1 1.7.1 1.9h-3.2c-.1-.4-.1-1-.1-1.2zM27.1 0c1.1 0 2 .9 2 1.9 0 1.1-.9 1.9-2 1.9-1 0-1.9-.9-1.9-1.9 0-1.1.9-1.9 1.9-1.9zm-1.6 15.8V5.1h3.3v10.7h-3.3zm5.9 0V.2h3.3v15.6h-3.3zm20.3 0V.2h3.2v5.9c.5-.7 1.6-1.3 3.1-1.3 3.1 0 5 2.4 5 5.6 0 3.3-2.1 5.6-5.1 5.6-1.4 0-2.5-.6-3-1.5v1.2h-3.2v.1zm5.6-8c-1.3 0-2.4.8-2.4 2.7 0 1.8 1.2 2.7 2.4 2.7s2.4-.9 2.4-2.7-1.1-2.7-2.4-2.7zM65.5 20l2.4-5.5-4.5-9.3h3.7l2.6 5.7 2.4-5.7h3.5L69 20h-3.5zm21.9-6.9h-2.1V9.5h2.1c1.3 0 2.1.7 2.1 1.8s-.8 1.8-2.1 1.8m-2.1-9.7h1.8c1.3 0 2 .7 2 1.6 0 1-.8 1.7-2 1.7h-1.9V3.4h.1zm4.9 4.5c1.2-.4 2.2-1.7 2.2-3.3 0-2.4-1.7-4.1-4.8-4.1h-5.7v15.3h6.2c2.9 0 4.8-1.8 4.8-4.3 0-2-1.4-3.2-2.7-3.6m9.8 5.2c-1.2 0-2.4-.9-2.4-2.7 0-1.8 1.2-2.7 2.4-2.7s2.4.8 2.4 2.7-1.2 2.7-2.4 2.7m0-8.3c-3.2 0-5.7 2.4-5.7 5.7 0 3.3 2.5 5.7 5.7 5.7s5.7-2.4 5.7-5.7c-.1-3.3-2.6-5.7-5.7-5.7m7.3-4.6h3.3v15.6h-3.3zm10.7 9l-1.4-.3c-.5-.1-.8-.3-.8-.8 0-.6.5-.9 1.2-.9 1 0 1.5.6 1.5 1.3l2.7-.5c-.1-1.2-1.2-3.2-4.3-3.2-2.4 0-4.1 1.6-4.1 3.6 0 1.5.9 2.8 3.2 3.3l1.2.3c.8.2 1.1.5 1.1.9 0 .5-.4.9-1.2.9-1.1 0-1.6-.7-1.7-1.5l-2.8.5c.1 1.2 1.2 3.3 4.5 3.3 2.8 0 4.3-1.8 4.3-3.6-.1-1.5-1.2-2.9-3.4-3.3m16.4 0c.1-.8.7-1.8 2.1-1.8 1.5 0 2.1 1 2.2 1.8h-4.3zm2.1-4.4c-2.8 0-5.3 2.2-5.3 5.6 0 3.6 2.6 5.7 5.6 5.7 2.7 0 4.4-1.5 4.9-3.4l-2.7-.8c-.3.8-1 1.4-2.2 1.4-1.3 0-2.4-.9-2.4-2.1h7.5c0-.1.1-.6.1-1-.1-3.3-2.2-5.4-5.5-5.4m10.4 1.8V5.1h-3.2v10.7h3.3v-4.7c0-2.1 1.2-2.9 2.5-2.9.3 0 .7 0 1 .1V5.1c-.2-.1-.5-.1-.9-.1-.8 0-2.1.4-2.7 1.6m-17.2-1.5h-2.1V2h-3.2v3.1h-1.9v2.8h1.9v4.6c0 2.1 1.4 3.4 3.6 3.4 1 0 1.6-.2 1.7-.3v-2.7c-.2 0-.5.1-.9.1-.7 0-1.2-.2-1.2-1.1V8h2.1V5.1zm22.9 6.7c-1.2 0-2.2 1-2.2 2.2s1 2.2 2.2 2.2 2.2-1 2.2-2.2-1-2.2-2.2-2.2M43.8 8V5.2h-2.1V2h-2.9v3.1h-2.2v2.8h1.9v4.6c0 2.1 1.4 3.4 3.6 3.4 1 0 1.6-.2 1.7-.3v-2.7c-.2 0-.5.1-.9.1-.7 0-1.2-.2-1.2-1.1V8h2.1z"/></svg>