<svg id="Layer_1" data-name="Layer 1" xmlns="http://www.w3.org/2000/svg" viewBox="0 0 758.92 158.8"><defs><style>.cls-1,.cls-2{fill:#fff;}.cls-2{fill-rule:evenodd;}</style></defs><title>PSE</title><path class="cls-1" d="M140,35.76a6.67,6.67,0,0,0-3.12-4.53,5.09,5.09,0,0,0-5.89.56,3,3,0,0,0-1.13,2.12,3.73,3.73,0,0,0,.63,2.21,3.82,3.82,0,0,0,.58.53,1.8,1.8,0,0,0,2.48,0s2-1.81-.78-3.54h0l-.06-.06a.58.58,0,0,1-.07-1,2.26,2.26,0,0,1,1.58-.47,4.94,4.94,0,0,1,4.16,3.17c1,2.78-1.22,5.56-3.84,6.3a6.16,6.16,0,0,1-2.42.08c-3.18-.54-4.69-3.81-5.35-6.61a27.27,27.27,0,0,1-.57-2.69c7.56-2.28,6.39-8.32,6.39-8.32-1.25-3.86-5.23-2.12-5.23-2.12a4.7,4.7,0,0,0-1.68,1.21,9.59,9.59,0,0,0-2,4.16,7.34,7.34,0,0,0-1.38-1.55c-.76-.87-1.17-.34-1.17-.34a1.23,1.23,0,0,1-.8.37s-4.71-.31-6.33,6a19.22,19.22,0,0,0-.43,2.58,6.87,6.87,0,0,0-.28-1.67A2.85,2.85,0,0,0,110.58,30a2.21,2.21,0,0,0-1.34.56,3.37,3.37,0,0,1-1.06.81,1.84,1.84,0,0,1-1.71-.31s-.41-.52-1.17.35c0,0-2.29,1.92-1.28,2.45,0,0,.87.22.9,1.61V45s.18,2.07-.46,2.56c-.48.34-.72-.32-.77-.47a6.91,6.91,0,0,1-.16-1.69l0-8s0-5.11-4.9-3c-4.14,1.79-3.27,4.79-3.27,4.79a2.85,2.85,0,0,0,.54.94,1.19,1.19,0,0,0,1.61.18,1.58,1.58,0,0,0,.53-.53h0v0a1,1,0,0,0,.08-.14C98.87,38.18,98,38,98,38a1.71,1.71,0,0,1-.67-.31c-.92-1.34,1.21-2.15,1.83-2.34a1.34,1.34,0,0,1,1.74,1.19,2.87,2.87,0,0,1,0,.77c-.43,2-1.64,3.2-3.18,4.46a7.77,7.77,0,0,0-3.11,5.57c-.08,2.12,1.54,5.2,4,3.9.42-.21,1.71-1,1.71-1.56,0,0,.11.61.87.18l7.09-3.19h0c.17-.08.32-.23-.13-.51a.85.85,0,0,1-.42-.83V34.81A2.93,2.93,0,0,1,109.2,32c2.18-.93,2.5,2.55,2.47,3.82,0,2.21,0,4.43,0,6.65a5.09,5.09,0,0,1-.22,1.78c-.4,1.29.13.86.13.86s2.51-1.17,2.67-1.2.3-.27-.1-.4-.46-.76-.46-.76v-.48c0-1.39,0-2.79,0-4.18.46,2.22,1.75,4.07,4.86,3.82a2.14,2.14,0,0,0,1.25-.45v6.23a5.47,5.47,0,0,1-.15,1.64h0a3.05,3.05,0,0,1-3.81,2.46.6.6,0,0,1-.24-1,2.13,2.13,0,0,0,.48-1.83,1.34,1.34,0,0,0-1.92-.93,1.47,1.47,0,0,0-.8,1.66.41.41,0,0,1-.07.11,6.11,6.11,0,0,0-4.19-1,12.92,12.92,0,0,0-2.87.63,19.49,19.49,0,0,0-5.55,3.08c-.82.61-1.65,1.23-2.49,1.81-2.82,1.94-6.17,3.8-9.7,3.8a4.2,4.2,0,0,1-4.19-4.19V41.77c1.41-.63,2-.45,2.16-.31A2.14,2.14,0,0,1,87,42.84V53s.19,2.1-.46,2.56c0,0-1,1.26.56.52l3.08-1.4s.74-.14,0-.56a.88.88,0,0,1-.42-.84V42.93a.55.55,0,0,0,0-.12s.07-2.88,1.91-2.34c0,0,2.63,1.07,3.22-1s-.78-2.45-1.93-2.15a3.84,3.84,0,0,0-1.88,1.35,1.8,1.8,0,0,1-2.57.35h0a.29.29,0,0,0-.16-.11.51.51,0,0,0-.39,0,5.72,5.72,0,0,0-1.65.91c-1.52.71-1.92-.33-2-.84V33.31a1.69,1.69,0,0,0,0-.25c0-.26-.05-1.45-1.42-.32A29.71,29.71,0,0,0,80,36.41h0a16,16,0,0,1-2.6,3.28,5.76,5.76,0,0,0-2.35-5.45c-2.82-2-6.68-.64-8.54,2-2.09,2.92-3.29,7.28-1.41,10.5a10.19,10.19,0,0,0,5.69,4.57c6.38,2.36,6.71,6.7,6.71,6.7h0c0,.17,0,.33,0,.49a6.92,6.92,0,0,1-4,6.72,6,6,0,0,1-8.11-4.48c-.46-3.12,2-6.9,5.51-6.17a2,2,0,0,1,.7.38.7.7,0,0,1,0,1.05,2.33,2.33,0,0,0,1,3.81,2,2,0,0,0,2.54-1.61,4,4,0,0,0-1.1-3,8,8,0,0,0-2.58-1.55A5.84,5.84,0,0,0,69,53.33s-6.9,1.09-5.7,9.08a8.27,8.27,0,0,0,8.77,6.52c7.57-.21,9.37-5.83,9.48-8.11A11.89,11.89,0,0,0,81,55.51h0a13.27,13.27,0,0,0-3.27-4.92c-3-2.86-7.39-4.05-8.8-6a7.17,7.17,0,0,1-.7-5.37,5,5,0,0,1,4.2-3.7,3.64,3.64,0,0,1,4,2.12c.45,1.21-.51,1.66-1.51,1.36s-1.51.85-1.51.85a1.79,1.79,0,0,0,1.36,2.56,2.27,2.27,0,0,0,.45,0,2.68,2.68,0,0,0,.88-.31c1.62-.81,2.91-2.9,3.52-3.73a3.68,3.68,0,0,1,1.22-1.23c.49-.09.45.64.45.64s0,2.14,0,2.13a3.11,3.11,0,0,1-1.14,2.8c-.62.57-.63.89-.63.89,0,.46.35.28.35.28l1.43-.66v8.88s-.3,5.89,3.14,7.55v0s2.12,1.31,6.66,0l0,0a3.81,3.81,0,0,0-1.37,2.07,4.3,4.3,0,0,0,.84,3.57h0s3.33,4.08,8.29,0a23.37,23.37,0,0,1,4.93-3.55c.86-.34,1.61-.39,1.64.42A1.93,1.93,0,0,0,108,64.13a1.62,1.62,0,0,0,.78-2.37,3.36,3.36,0,0,0-2.29-1.37c2.57-.18,5.54-.87,7.31-2.72a5.4,5.4,0,0,0,1.32-2.28,6.24,6.24,0,0,0,0-2.36l.17,0a5.17,5.17,0,0,0,2,.09c.36,0,.6-.06.6-.06,4.94-1,4.82-8.91,4.82-8.91v0q0-.53,0-1.08V29.32a1.61,1.61,0,0,1,.79-1.55,22.19,22.19,0,0,0-.29,2.37l0,.52a15.46,15.46,0,0,0,1.68,6.92,17.34,17.34,0,0,0,1.13,2,9,9,0,0,0,6.76,4.22C139.09,44.11,140.38,38.52,140,35.76ZM100.28,47.64c-.8.89-1.86.3-2.17-.73-.56-1.88.48-3.39,1.61-4.78.43-.52.88-1,1.34-1.53v4.69A3.76,3.76,0,0,1,100.28,47.64Zm16.2-9.34a11.69,11.69,0,0,1-.49-3,19.53,19.53,0,0,1,.2-3.5,10.53,10.53,0,0,1,.79-3.18c.39-.81,1.06-1.78,2.08-1.76.58,0,.84.51.84,1v9.56c-.06.8-.32,2.74-1.71,2.66l-.17,0A2.87,2.87,0,0,1,116.48,38.3Zm-16,24.43c-1.45,1-2.79,2.38-4.56,2.76-2.37.52-3.94-1.55-3.81-3.78.17-2.89,4.25-2.32,6.11-2a34.45,34.45,0,0,0,7,.68h.2A13.55,13.55,0,0,0,100.43,62.73Zm8.44-4.66a12,12,0,0,1-5.44,1.1,29.19,29.19,0,0,1-3.11-.25,30.91,30.91,0,0,0-3.84-.32,18.92,18.92,0,0,0-3,.15,34.22,34.22,0,0,0,6-3.44h0l.33-.21c2.45-1.67,6-4.34,9.15-3.57a3.71,3.71,0,0,1,2.68,3.07C111.67,56.26,110.21,57.44,108.87,58.07Zm19-35.2C129.17,22.38,130,24,130,24c1.51,4-3.89,6.39-3.89,6.39C125.74,24,127.89,22.87,127.89,22.87Z" transform="translate(-22.51 89.86)"/><path class="cls-1" d="M113.32,49.86a1.56,1.56,0,0,1,1.4-2.21c2.1-.2,1.55,2.12,1.55,2.12a2.17,2.17,0,0,1-.71,1.07" transform="translate(-22.51 89.86)"/><path class="cls-1" d="M29.65,45.19V49H31.1v.34H26.64V49h1.42V40.68H26.64v-.34h4.61a3.42,3.42,0,0,1,2.35.7,2.16,2.16,0,0,1,.79,1.7,2.24,2.24,0,0,1-.79,1.75,4,4,0,0,1-2.66.7Zm0-4.51v4.17h.86a4.41,4.41,0,0,0,1.12-.12,1.26,1.26,0,0,0,.77-.6,2.73,2.73,0,0,0,.33-1.51,2.39,2.39,0,0,0-.29-1.32,1.14,1.14,0,0,0-.67-.52,3.77,3.77,0,0,0-1-.1Z" transform="translate(-22.51 89.86)"/><path class="cls-1" d="M38.9,46.5H36.05L35.14,49H36.8v.34H33.55V49h1.24l3.26-8.81h.21L41.39,49h1.2v.34H38.32V49h1.45Zm-2.72-.34h2.6l-1.26-3.58h0Z" transform="translate(-22.51 89.86)"/><path class="cls-1" d="M49.89,40.68H48.43v-.34h3.19v.34H50.21v5.41A6.65,6.65,0,0,1,50,47.83a2,2,0,0,1-.65.94,2.87,2.87,0,0,1-1.12.55,5,5,0,0,1-1.34.18A4,4,0,0,1,44.78,49,1.88,1.88,0,0,1,44,47.9a7.94,7.94,0,0,1-.16-1.81V40.68h-1.3v-.34h4.28v.34H45.36v5.26a12.44,12.44,0,0,0,.1,1.71,1.78,1.78,0,0,0,.54,1,2,2,0,0,0,1.4.42,3,3,0,0,0,1.39-.32,1.84,1.84,0,0,0,.85-.85,5.49,5.49,0,0,0,.25-2Z" transform="translate(-22.51 89.86)"/><path class="cls-1" d="M55.76,40.68V49h2a3.65,3.65,0,0,0,.91-.09,1.53,1.53,0,0,0,.66-.42,2.47,2.47,0,0,0,.5-.79,10.74,10.74,0,0,0,.37-1.28h.32l-.25,2.92H52.76V49h1.41V40.68H52.76v-.34h4.49v.34Z" transform="translate(-22.51 89.86)"/><path class="cls-1" d="M145.18,45.19V49h1.45v.34h-4.46V49h1.42V40.68h-1.42v-.34h4.61a3.42,3.42,0,0,1,2.35.7,2.17,2.17,0,0,1,.8,1.7,2.24,2.24,0,0,1-.8,1.75,4,4,0,0,1-2.65.7Zm0-4.51v4.17H146a4.35,4.35,0,0,0,1.12-.12,1.26,1.26,0,0,0,.77-.6,2.73,2.73,0,0,0,.33-1.51A2.39,2.39,0,0,0,148,41.3a1.11,1.11,0,0,0-.67-.52,3.72,3.72,0,0,0-1-.1Z" transform="translate(-22.51 89.86)"/><path class="cls-1" d="M152.78,49V40.68h-1.41v-.34h4.9a6.24,6.24,0,0,1,1.58.17,2,2,0,0,1,1.06.69,1.79,1.79,0,0,1,.45,1.2,1.7,1.7,0,0,1-.65,1.38,5.06,5.06,0,0,1-2.22.79v0a3.79,3.79,0,0,1,1.84.85,2.74,2.74,0,0,1,.72,2.15,1.91,1.91,0,0,0,.2,1.11.7.7,0,0,0,.56.24,2.09,2.09,0,0,0,.56-.09v.33a3.49,3.49,0,0,1-1.12.2,1.8,1.8,0,0,1-1.55-.62,2,2,0,0,1-.44-1.2l0-1.13a2.11,2.11,0,0,0-.38-1.17c-.25-.39-.82-.58-1.71-.58h-.84V49h1.41v.34h-4.4V49Zm1.58-8.27v3.7h1.2a5,5,0,0,0,1.18-.1,1.05,1.05,0,0,0,.66-.54,3,3,0,0,0,.24-1.39,2,2,0,0,0-.25-1.14,1,1,0,0,0-.59-.44,3.85,3.85,0,0,0-.92-.09Z" transform="translate(-22.51 89.86)"/><path class="cls-1" d="M164.59,40.68v3.84h.81a2.48,2.48,0,0,0,.72-.09.94.94,0,0,0,.54-.45,2.5,2.5,0,0,0,.27-1.14h.34v3.79h-.34a2.21,2.21,0,0,0-.42-1.43,1.55,1.55,0,0,0-1.11-.34h-.81V49h1.82a2.88,2.88,0,0,0,2.15-.65,3.35,3.35,0,0,0,.71-2h.34l-.09,3h-7.93V49H163V40.68h-1.42v-.34h7.61l.15,2.39H169a2.62,2.62,0,0,0-.72-1.57,2.69,2.69,0,0,0-1.8-.48Z" transform="translate(-22.51 89.86)"/><path class="cls-1" d="M176.54,40.24l0,2.32h-.31c-.45-1.39-1.23-2.08-2.36-2.08a2,2,0,0,0-1.45.51,1.53,1.53,0,0,0-.51,1.07,1.09,1.09,0,0,0,.43.88,3.44,3.44,0,0,0,1.57.55,8,8,0,0,1,1.74.48,2.45,2.45,0,0,1,1,1,2.74,2.74,0,0,1,.41,1.51,3,3,0,0,1-.85,2.19,2.89,2.89,0,0,1-2.13.88,3.43,3.43,0,0,1-2.06-.77l-.63.56h-.23v-2.5h.29a3.74,3.74,0,0,0,1.1,1.77,2.31,2.31,0,0,0,1.54.59,2.38,2.38,0,0,0,1.53-.55,1.68,1.68,0,0,0,.7-1.39,1.64,1.64,0,0,0-.48-1.19,2.87,2.87,0,0,0-1.57-.66,8.43,8.43,0,0,1-1.66-.43,2.3,2.3,0,0,1-1-.85,2.35,2.35,0,0,1-.41-1.34,2.63,2.63,0,0,1,.72-1.81,2.5,2.5,0,0,1,1.95-.79,3.16,3.16,0,0,1,1.93.65,2.33,2.33,0,0,0,.43-.55Z" transform="translate(-22.51 89.86)"/><path class="cls-1" d="M181.54,40.68v3.84h.81a2.53,2.53,0,0,0,.72-.09.9.9,0,0,0,.53-.45,2.36,2.36,0,0,0,.28-1.14h.34v3.79h-.34a2.21,2.21,0,0,0-.42-1.43,1.57,1.57,0,0,0-1.11-.34h-.81V49h1.82a2.88,2.88,0,0,0,2.15-.65,3.41,3.41,0,0,0,.71-2h.34l-.09,3h-7.93V49H180V40.68h-1.42v-.34h7.6l.16,2.39H186a2.62,2.62,0,0,0-.72-1.57,2.69,2.69,0,0,0-1.8-.48Z" transform="translate(-22.51 89.86)"/><path class="cls-1" d="M195.84,40.68V49.5h-.28l-5.89-8.86h0V49h1.51v.34H188V49h1.33V40.68h-1.42v-.34h3.41l4.17,6.27h0V40.68H194v-.34h3.17v.34Z" transform="translate(-22.51 89.86)"/><path class="cls-1" d="M198.32,40.34H206l.23,3h-.34a4.84,4.84,0,0,0-.83-2.11,1.74,1.74,0,0,0-1.36-.59h-.72V49h1.6v.34h-4.79V49h1.6V40.68h-.72a1.73,1.73,0,0,0-1.36.59,4.72,4.72,0,0,0-.83,2.11h-.34Z" transform="translate(-22.51 89.86)"/><path class="cls-1" d="M212.7,40.24l0,2.32h-.31c-.45-1.39-1.23-2.08-2.36-2.08a2,2,0,0,0-1.45.51,1.55,1.55,0,0,0-.52,1.07,1.12,1.12,0,0,0,.43.88,3.49,3.49,0,0,0,1.57.55,7.79,7.79,0,0,1,1.74.48,2.41,2.41,0,0,1,1,1,2.82,2.82,0,0,1,.41,1.51,3,3,0,0,1-.86,2.19,2.87,2.87,0,0,1-2.12.88,3.43,3.43,0,0,1-2.06-.77l-.63.56h-.24v-2.5h.29a3.82,3.82,0,0,0,1.1,1.77,2.33,2.33,0,0,0,1.55.59,2.38,2.38,0,0,0,1.53-.55,1.68,1.68,0,0,0,.7-1.39A1.64,1.64,0,0,0,212,46a2.9,2.9,0,0,0-1.57-.66,8.76,8.76,0,0,1-1.67-.43,2.43,2.43,0,0,1-1.4-2.19,2.63,2.63,0,0,1,.72-1.81,2.5,2.5,0,0,1,1.95-.79,3.18,3.18,0,0,1,1.93.65,2.62,2.62,0,0,0,.43-.55Z" transform="translate(-22.51 89.86)"/><rect class="cls-1" y="144.06" width="44.87" height="0.24"/><rect class="cls-1" y="124.89" width="44.87" height="0.24"/><rect class="cls-1" x="117.03" y="124.89" width="77.41" height="0.24"/><rect class="cls-1" x="92.08" y="144.06" width="102.9" height="0.24"/><path class="cls-1" d="M423.09-21.74H355V-89.86h68.1Zm-20.27-26a3.67,3.67,0,0,0,.6-.29,1.78,1.78,0,0,0,.72-1.78,1.45,1.45,0,0,0-1.34-1.32c-1-.11-2-.08-3-.1-.05,0-.14.1-.15.17-.08.48-.15,1-.22,1.43l-.69,4.29c-.06.4-.12.8-.18,1.23h2.77a2.4,2.4,0,0,0,2.42-2.16,1.19,1.19,0,0,0-.9-1.45ZM390-56.95a4.14,4.14,0,0,0,.75-.45,1.8,1.8,0,0,0,.49-1.86,1.46,1.46,0,0,0-1.33-1.1c-1-.1-1.94-.08-2.91-.1a.22.22,0,0,0-.16.16c-.07.36-.12.73-.18,1.09-.21,1.32-.42,2.64-.62,4-.1.63-.2,1.26-.3,1.92H386c.81,0,1.61,0,2.41,0a3.09,3.09,0,0,0,.8-.11,2.39,2.39,0,0,0,1.71-2.4A1.1,1.1,0,0,0,390-56.95Zm-4.14-5.58h1.83c.06,0,.15-.14.16-.23.14-.82.26-1.65.39-2.47,0-.06.09-.16.13-.16h.78l-.44,2.85h1.95l1.12-7.1c-.64,0-1.23,0-1.83,0-.05,0-.13.1-.14.16-.12.7-.22,1.41-.34,2.11,0,.09-.1.24-.17.25a6.14,6.14,0,0,1-.75,0l.39-2.54c-.56,0-1.09,0-1.61,0-.29,0-.36.09-.4.35-.2,1.32-.41,2.63-.62,3.94C386.18-64.44,386-63.5,385.88-62.53Zm9.47,11.33h-1.93l0,.11-.54,3.35c-.08.52-.16,1-.27,1.54a.5.5,0,0,1-.59.43c-.23,0-.34-.23-.28-.58.19-1.28.39-2.56.58-3.84,0-.33.1-.66.15-1-.63,0-1.21,0-1.78,0-.07,0-.17.11-.18.19-.19,1.1-.38,2.19-.54,3.3a16.74,16.74,0,0,0-.21,2A1.58,1.58,0,0,0,391.1-44a3.15,3.15,0,0,0,.61.06,2.58,2.58,0,0,0,2.82-2.18c.19-1,.33-1.93.49-2.9C395.13-49.75,395.23-50.45,395.35-51.2Zm8.7-18.45h-3.6l-1.12,7.1h3.6l.26-1.67h-1.64c0-.3.11-.56.12-.82s.11-.26.3-.26h1.22l.28-1.7H402l.15-1h1.64Zm-25.7,20.54c.1-.63.19-1.22.3-1.81,0-.2,0-.27-.2-.31a3.24,3.24,0,0,0-3.05.82A4.87,4.87,0,0,0,374-46.18,2.35,2.35,0,0,0,377.08-44c.35-.08.56-.24.57-.61,0-.13.06-.25.08-.37.08-.38.16-.75.25-1.15-.24.12-.43.25-.64.33a.93.93,0,0,1-1.37-.78,3.44,3.44,0,0,1,.4-2.13A1.18,1.18,0,0,1,378.35-49.11Zm24.95-6.33c-.23.12-.42.24-.62.32a.91.91,0,0,1-1.36-.61,3.23,3.23,0,0,1,.53-2.54,1.15,1.15,0,0,1,.94-.49,1.19,1.19,0,0,1,.88.4l.34-2.11a6.74,6.74,0,0,0-1.16-.1,3.47,3.47,0,0,0-2.7,1.53,5.39,5.39,0,0,0-.9,3.51,2.58,2.58,0,0,0,.5,1.43,2.52,2.52,0,0,0,3,.67.23.23,0,0,0,.12-.15C403-54.19,403.16-54.8,403.3-55.44Zm-24.61-5h-4a.21.21,0,0,0-.15.1c-.1.54-.18,1.09-.27,1.67h1.05l-.84,5.34h1.93a.82.82,0,0,0,.06-.19c.26-1.64.52-3.28.77-4.93,0-.18.09-.24.27-.23s.56,0,.87,0Zm-2.19-2.08.84-5.35h1.1l.28-1.75h-4.11l-.28,1.76h1.06l-.85,5.34ZM382-44.09h3.39l.26-1.68h-1.44l.86-5.44c-.6,0-1.16,0-1.72,0-.2,0-.25.09-.28.27-.16,1.09-.34,2.18-.51,3.27S382.17-45.3,382-44.09Z" transform="translate(-22.51 89.86)"/><path class="cls-1" d="M400.79-45.66,401-47a.75.75,0,0,1,.74.22.56.56,0,0,1,0,.7A.86.86,0,0,1,400.79-45.66Z" transform="translate(-22.51 89.86)"/><path class="cls-1" d="M401.42-49.64c.54,0,.75.13.75.48s-.34.73-.93.68Z" transform="translate(-22.51 89.86)"/><path class="cls-1" d="M388-54.91l.2-1.29a.75.75,0,0,1,.75.2.6.6,0,0,1,0,.71A.9.9,0,0,1,388-54.91Z" transform="translate(-22.51 89.86)"/><path class="cls-1" d="M388.41-57.72l.18-1.17c.27,0,.56,0,.68.21a.86.86,0,0,1,0,.63C389.08-57.74,388.77-57.69,388.41-57.72Z" transform="translate(-22.51 89.86)"/><path class="cls-2" d="M635.79-74H637c3.58.31,3.07,4.7,3,8.66,5,.17,11.49-.63,15.36,1.16a11.14,11.14,0,0,1,4,3.35c.87,1.17,2.33,3.67,2.2,5.08-.08.88-1.24,1.67-1.73,2.66a11.13,11.13,0,0,0-.35,7.85,28.66,28.66,0,0,0,1.73,3,3.9,3.9,0,0,1-2.31,1.39h-1.27c-4.75-.6-2.4-8.1-3-12.94a5,5,0,0,0-2.77-4c-3.06-1.31-7.59.26-11.79-.35-.2,2.08-.11,4.75-.11,7.51,0,4.65.84,9.22-2.89,9.82h-1.27a3.92,3.92,0,0,1-3-2.66V-71.38A4,4,0,0,1,635.79-74Z" transform="translate(-22.51 89.86)"/><path class="cls-1" d="M687.63-51.32a77.69,77.69,0,0,1-.12-10.35c0-.53,0-1.07,0-1.6l-.26-.2A9.91,9.91,0,0,0,685-64.71a15,15,0,0,0-2.54-.73l-.4,0-.4,0H667.29a2.4,2.4,0,0,0-1.28.34,3.58,3.58,0,0,0-1,.84,3.74,3.74,0,0,0-.65,1.13,3.59,3.59,0,0,0-.23,1.27,3.9,3.9,0,0,0,.52,2,3,3,0,0,0,1.57,1.34,6.23,6.23,0,0,0,.84.3h14.09l.55.15.75.22a2.31,2.31,0,0,1,1,.73,1.75,1.75,0,0,1,.42,1.11v7.83H667.7c-.22,0-.36-.06-.42-.2a1.29,1.29,0,0,1-.08-.45.77.77,0,0,1,.17-.53.61.61,0,0,1,.5-.2h11.67l.58-.21a3.7,3.7,0,0,0,1.68-1.33,3.52,3.52,0,0,0,.58-2,3.92,3.92,0,0,0-.22-1.28,4.25,4.25,0,0,0-.63-1.15,3.35,3.35,0,0,0-1-.84,2.5,2.5,0,0,0-1.3-.34h-12a4.34,4.34,0,0,0-1,.15c-.39.1-.73.2-1,.31a7.18,7.18,0,0,0-3.86,2.87A8.26,8.26,0,0,0,660-48.91a8,8,0,0,0,1.22,4.37,7.51,7.51,0,0,0,3.47,2.89c.28.11.67.23,1.16.37a4.52,4.52,0,0,0,1.19.21h21.19a2,2,0,0,0,.93-.27,3.94,3.94,0,0,0,.94-.71,4.27,4.27,0,0,0,.72-.92,1.93,1.93,0,0,0,.27-.94V-44A12.06,12.06,0,0,1,687.63-51.32Z" transform="translate(-22.51 89.86)"/><path class="cls-2" d="M691.25-74h1.15c4.27.47,3.12,6.49,3.12,12.13,0,5.86-1.06,12.43,3,13.63,1.09.32,3.29.11,5.08.11,3.68,0,6.66.26,8-2,1.44-2.44.73-6-1.39-7.28a8.06,8.06,0,0,0-2.77-.8c-2.68-.31-7.06.51-8.66-.35-2.37-1.27-2.16-5.38.23-6.47,1.76-.8,8.09-.59,10.16-.23,2.83.49,4.14,1.49,6.12,2.66-.19,6-.19,12.89,0,18.94A15.61,15.61,0,0,1,709-40.88H698.76a12,12,0,0,1-10.4-10.51c-.51-5,0-10.28,0-15.36C688.36-70.68,688-73.45,691.25-74Z" transform="translate(-22.51 89.86)"/><path class="cls-2" d="M726.79-73.87H728c3.57.28,3.06,4.64,3,8.55,2.33.42,5.28-.34,6.93.58,2.37,1.31,2.37,5.48-.35,6.58-1.9.77-3.81-.09-6.35.23a86.57,86.57,0,0,0,0,9.93,29.64,29.64,0,0,0,4.27.12,11.06,11.06,0,0,0,1.16,3.81c.56,1,1.47,1.69,1.73,2.66a7.74,7.74,0,0,0-1.27.69h-7c-2.43-.52-5.66-2.85-6.13-6.35s0-8,0-12.25v-6.23c0-2.18-.36-4.74,0-6S725.92-73.53,726.79-73.87Z" transform="translate(-22.51 89.86)"/><path class="cls-2" d="M768.61-73.87h1.15c3.58.31,3.06,4.72,3,8.66,3.51-.06,8.35-.5,8.67,3v1.38c-.41,3.41-4.68,3-8.55,2.89v9.82c3.44.49,8.36-.5,8.55,3.23v1.27a4.14,4.14,0,0,1-2.54,2.89h-7a8,8,0,0,1-6.24-6.93c-.5-5.37,0-12.29,0-18C765.6-70.17,765.3-73.39,768.61-73.87Z" transform="translate(-22.51 89.86)"/><path class="cls-2" d="M720.21-40.88h-1.27a3.83,3.83,0,0,1-2.89-2.43c-.67-2.51-.11-6.49-.11-9.81v-5c0-1.68-.27-3.71.11-5,.86-2.84,6.25-3.06,6.93,0,.34,1.49,0,3.44,0,5v14.9A4.06,4.06,0,0,1,720.21-40.88Z" transform="translate(-22.51 89.86)"/><path class="cls-2" d="M764.56-40.72H743.19c-3.75-1-6.12-3.32-6.46-6.81A7.86,7.86,0,0,1,739.84-55c2.44-1.64,5.89-1.5,10.4-1.5,1.92,0,4.81-.32,6.12.23,2.82,1.19,2.46,6.34-.69,6.93-2.69.5-6.91,0-9.7,0-.77,0-2.33-.36-2.08,1.15,4.85.54,10.7.08,15.94.23v-8.31c-1.43-2.46-5.49-1.73-9.48-1.73-2.25,0-4.9.41-6.93,0-3.13-.65-3.36-5.8-.46-6.94,1.38-.53,4.84-.23,7.16-.23,2.49,0,5.34-.13,7.4,0S764-63.58,764.45-62a18.11,18.11,0,0,1,0,3.7c0,6.34-.79,13,2.19,15.93A5.48,5.48,0,0,1,764.56-40.72Z" transform="translate(-22.51 89.86)"/><path class="cls-1" d="M256.18-67.28V-38.4h-6.07V-67.28h-3.68v-5.81H260v5.81Zm9.67,28.88h-5.94l3.78-34.69h8.75l3.21,34.69h-6s-.39-6.07-.48-8.72h-2.73C266.33-44.47,265.85-38.4,265.85-38.4Zm2.39-23.46c-.09-2.34-.39-7.16-.39-7.16s-.26,4.77-.35,7.16c0,.22-.87,10-.87,10.19h2.3C268.93-51.84,268.24-61.64,268.24-61.86Zm9.58,23.46V-73.09H284v29h6.81v5.68Zm15.35,0V-73.09h12.36v5.81H299.2v8.67H305v5.42H299.2v9.11h6.37v5.68Zm21.21.39c-4.17,0-6.94-2-6.94-5.77v-4.29H313v3.34c0,1.26.52,1.65,1.26,1.65s1.26-.52,1.26-2.43a9.75,9.75,0,0,0-2.43-7.2c-.91-1.22-1.61-2-2.65-3.3-2.34-2.86-3.16-5.11-3.16-9.49,0-4.86,2.9-7.9,7.15-7.9,4.73,0,6.64,3.13,6.81,7,0,.6.09,3.6.09,3.6h-5.64l0-3.08c0-1.35-.26-2.13-1.22-2.13s-1.34.7-1.34,2.47a8.56,8.56,0,0,0,2.3,6.16c1.08,1.3,1.9,2.26,2.73,3.38a14.47,14.47,0,0,1,3.29,10C321.44-40.66,318.84-38,314.38-38Z" transform="translate(-22.51 89.86)"/><path class="cls-1" d="M154.26-67.28V-38.4h-6.07V-67.28H144.5v-5.81H158v5.81Zm6,28.88V-73.09h12.36v5.81h-6.34v8.67h5.77v5.42h-5.77v9.11h6.38v5.68Zm14.7,0V-73.09h6.2v29H188v5.68Zm15.35,0V-73.09h6.2v29h6.81v5.68Z" transform="translate(-22.51 89.86)"/><path class="cls-1" d="M218.33-38.4,215.08-54V-38.4h-5.55V-73.09h5.29l3.38,15.31V-73.09h5.55V-38.4Zm23-28.06c.08,1.35.08,7,.08,10.41,0,3.73,0,8.8-.08,10.84-.22,4.64-2.39,7.2-7.38,7.2s-7.15-2.43-7.33-6.81c0-1.21-.08-7.8-.08-11s0-9.54.08-10.24c.13-4.07,2-7.24,7.33-7.24C238.8-73.31,241-70.88,241.32-66.46Zm-6,21.16c0-1.34.08-7.8.08-10.45,0-2.29,0-8.58,0-9.88,0-1.69-.35-2.26-1.3-2.26s-1.21.74-1.3,2.3c0,1.3,0,7.55,0,9.93s0,8.93,0,10.36c.09,1.18.3,1.87,1.3,1.87S235.2-44.21,235.29-45.3Z" transform="translate(-22.51 89.86)"/></svg>