<svg id="Layer_1" data-name="Layer 1" xmlns="http://www.w3.org/2000/svg" viewBox="0 0 280.35 100.36"><defs><style>.cls-1{fill:#fff;}</style></defs><title>ROV</title><g id="_Group_" data-name="&lt;Group&gt;"><path id="_Compound_Path_" data-name="&lt;Compound Path&gt;" class="cls-1" d="M142,161.55H121.27v36.68H103.35V101.71h43.57c18.75,0,30.75,12.41,30.75,29.78,0,13.24-6.49,23.44-17.65,27.72l18.61,39.16H159.05Zm-20.68-17.09h24.41c8.68,0,14.06-4.7,14.06-13,0-7.85-5.38-12.54-14.06-12.54H121.27Z" transform="translate(-103.35 -99.86)"/><path id="_Compound_Path_2" data-name="&lt;Compound Path&gt;" class="cls-1" d="M383.7,101.71l-37.22,96.52h-22.2l-37.09-96.52H307l28.4,74.73,28.41-74.73Z" transform="translate(-103.35 -99.86)"/></g><g id="_Group_2" data-name="&lt;Group&gt;"><g id="_Group_3" data-name="&lt;Group&gt;"><path id="_Path_" data-name="&lt;Path&gt;" class="cls-1" d="M275.83,124.18c-.86,0-2,.5-2.5-.26a44.6,44.6,0,0,0-72.32,0c-.9,1.25-1.34-.33-2.59-1.24s-2.84-.78-1.93-2a50.17,50.17,0,0,1,81.36,0,2.8,2.8,0,0,1-.62,3.9C276.73,124.91,276.4,124.18,275.83,124.18Z" transform="translate(-103.35 -99.86)"/></g><g id="_Group_4" data-name="&lt;Group&gt;"><path id="_Path_2" data-name="&lt;Path&gt;" class="cls-1" d="M237.17,200.22a50.21,50.21,0,0,1-46.66-68.68c.56-1.43,1.14-.84,2.57-.27,0,0,3.18.9,2.62,2.33a44.6,44.6,0,1,0,83.07.34,2.79,2.79,0,0,1,5.21-2,50.21,50.21,0,0,1-46.81,68.3Z" transform="translate(-103.35 -99.86)"/></g><g id="_Group_5" data-name="&lt;Group&gt;"><g id="_Group_6" data-name="&lt;Group&gt;"><path id="_Path_3" data-name="&lt;Path&gt;" class="cls-1" d="M237.15,180.68a27.93,27.93,0,0,1-16.52-4.9,29.57,29.57,0,0,1-8.11-8.95,2.79,2.79,0,0,1,4.77-2.91c2.93,4.79,8.18,11.17,19.86,11.17a22.35,22.35,0,0,0,13.57-4.45,20.31,20.31,0,0,0,5.37-5.63,2.79,2.79,0,1,1,5,2.58C259.27,171,251.07,180.68,237.15,180.68Z" transform="translate(-103.35 -99.86)"/></g><g id="_Group_7" data-name="&lt;Group&gt;"><path id="_Path_4" data-name="&lt;Path&gt;" class="cls-1" d="M236.83,129.93" transform="translate(-103.35 -99.86)"/></g><g id="_Group_8" data-name="&lt;Group&gt;"><path id="_Path_5" data-name="&lt;Path&gt;" class="cls-1" d="M236.64,129.93" transform="translate(-103.35 -99.86)"/></g><g id="_Group_9" data-name="&lt;Group&gt;"><path id="_Path_6" data-name="&lt;Path&gt;" class="cls-1" d="M236.64,129.93" transform="translate(-103.35 -99.86)"/></g><g id="_Group_10" data-name="&lt;Group&gt;"><path id="_Path_7" data-name="&lt;Path&gt;" class="cls-1" d="M236.83,129.93" transform="translate(-103.35 -99.86)"/></g></g><g id="_Group_11" data-name="&lt;Group&gt;"><g id="_Group_12" data-name="&lt;Group&gt;"><path id="_Compound_Path_3" data-name="&lt;Compound Path&gt;" class="cls-1" d="M211.74,158.16c-5.73,0-10.41-1.55-13.91-4.61a15.76,15.76,0,0,1-5.15-9c-.61-3.36-1.47-7.49-1.93-9.72-.13-.61-.23-1.09-.28-1.38a5.44,5.44,0,0,0-2.23-1.65,2.8,2.8,0,0,1-1.69-2.56v-7a2.8,2.8,0,0,1,2.79-2.79h0l36.44,0a12.5,12.5,0,0,1,9.93,5.25H239a12.11,12.11,0,0,1,9.79-5.25l36.23,0h0a2.8,2.8,0,0,1,2.79,2.79v7a2.79,2.79,0,0,1-1,2.16,4.17,4.17,0,0,1-.79.5,4.17,4.17,0,0,0-1.85,1.55c-.27,1.34-1.32,6.85-2.09,11.1-1.15,6.25-6.82,13.56-19,13.56-7.69,0-12.43-.94-15.87-3.13-3.77-2.4-5.65-6.07-7.32-10.85l0-.09L238,138.46a1.1,1.1,0,0,0-.59-.14h-.13a2.2,2.2,0,0,0-.59.1L235,144.1l0,.1c-1.68,4.77-3.56,8.45-7.34,10.84C224.18,157.23,219.43,158.16,211.74,158.16Zm-19.61-30.57a8.43,8.43,0,0,1,3.6,4,4.79,4.79,0,0,1,.21.74c.05.28.15.75.28,1.35.46,2.25,1.33,6.42,1.95,9.85.28,1.5,2.22,9,13.57,9,13.16,0,15.28-2.63,17.92-10.17l1.89-6.12a3,3,0,0,1,.22-.52,6.28,6.28,0,0,1,5.55-3h.13a6.25,6.25,0,0,1,5.54,3,2.91,2.91,0,0,1,.22.51l1.88,6.09c2.65,7.54,4.77,10.19,17.91,10.19,2,0,12-.44,13.54-9,.78-4.27,1.83-9.83,2.11-11.19a7.76,7.76,0,0,1,3.56-4.7v-2.61l-33.44,0c-3.81,0-5.68,3.56-5.76,3.71a2.75,2.75,0,0,1-2.49,1.54h-6.3a2.78,2.78,0,0,1-2.47-1.49c-.07-.14-2.1-3.76-6-3.76l-33.65,0Z" transform="translate(-103.35 -99.86)"/></g><g id="_Group_13" data-name="&lt;Group&gt;"><path id="_Path_8" data-name="&lt;Path&gt;" class="cls-1" d="M198.71,153.06c-.54,0-.5-1.11-1-1.46-1.11-.85-1.9-1.51-1.05-2.62l21.59-28.22c.85-1.11,1.76-.59,2.88.26s2,1.71,1.15,2.82l-21.59,28.22A2.54,2.54,0,0,1,198.71,153.06Z" transform="translate(-103.35 -99.86)"/></g><g id="_Group_14" data-name="&lt;Group&gt;"><path id="_Path_9" data-name="&lt;Path&gt;" class="cls-1" d="M214.5,147.72a2.54,2.54,0,0,1-2-4.08l7.87-10.28a2.54,2.54,0,1,1,4,3.09l-7.87,10.28A2.53,2.53,0,0,1,214.5,147.72Z" transform="translate(-103.35 -99.86)"/></g><g id="_Group_15" data-name="&lt;Group&gt;"><path id="_Path_10" data-name="&lt;Path&gt;" class="cls-1" d="M246.17,153.06c-.54,0,.12-1.19-.34-1.54-1.11-.85-2.53-1.43-1.67-2.54l21.59-28.22c.85-1.11,1.39-.18,2.5.67s2.38,1.3,1.53,2.41l-21.59,28.22A2.56,2.56,0,0,1,246.17,153.06Z" transform="translate(-103.35 -99.86)"/></g><g id="_Group_16" data-name="&lt;Group&gt;"><path id="_Path_11" data-name="&lt;Path&gt;" class="cls-1" d="M262,147.72a2.53,2.53,0,0,1-2-4.08l7.87-10.28a2.54,2.54,0,0,1,4,3.09L264,146.73A2.53,2.53,0,0,1,262,147.72Z" transform="translate(-103.35 -99.86)"/></g></g></g></svg>