<?xml version="1.0" encoding="UTF-8"?><!DOCTYPE svg PUBLIC "-//W3C//DTD SVG 1.1//EN" "http://www.w3.org/Graphics/SVG/1.1/DTD/svg11.dtd"><svg xmlns="http://www.w3.org/2000/svg"><symbol id="icon-cross" viewBox="0 0 33.38 33.37"><path d="M5.49 5.48a3.17 3.17 0 0 1-4.53 0C-.32 4.2-.32 2.22.96.95a3.17 3.17 0 0 1 4.53 0 3.17 3.17 0 0 1 0 4.53zm0 22.41a3.17 3.17 0 0 0-4.53 0 3.152 3.152 0 0 0 0 4.53 3.17 3.17 0 0 0 4.53 0c1.27-1.28 1.27-3.26 0-4.53zm6.67-20.18c-1.27-1.28-3.17-1.28-4.45 0-1.27 1.27-1.27 3.17 0 4.45 1.28 1.27 3.18 1.27 4.45 0 1.27-1.28 1.27-3.18 0-4.45zm0 13.5c-1.27-1.27-3.17-1.27-4.45 0-1.27 1.28-1.27 3.18 0 4.45 1.28 1.27 3.18 1.27 4.45 0s1.27-3.17 0-4.45zm6.75-6.75c-1.27-1.26-3.18-1.26-4.45 0-1.27 1.27-1.27 3.18 0 4.45 1.27 1.28 3.18 1.28 4.45 0 1.27-1.27 1.27-3.18 0-4.45zm6.75-6.75c-1.26-1.28-3.17-1.28-4.44 0-1.27 1.27-1.27 3.17 0 4.45 1.27 1.27 3.18 1.27 4.44 0 1.28-1.28 1.28-3.18 0-4.45zm0 13.5c-1.26-1.27-3.17-1.27-4.44 0-1.27 1.28-1.27 3.18 0 4.45s3.18 1.27 4.44 0c1.28-1.27 1.28-3.17 0-4.45zM32.42.95c-1.27-1.27-3.25-1.27-4.53 0a3.17 3.17 0 0 0 0 4.53 3.17 3.17 0 0 0 4.53 0 3.152 3.152 0 0 0 0-4.53zm0 26.94c-1.27-1.27-3.25-1.27-4.53 0a3.17 3.17 0 0 0 0 4.53 3.17 3.17 0 0 0 4.53 0c1.28-1.28 1.28-3.26 0-4.53z"/></symbol><symbol id="icon_plus" viewBox="0 0 30 30"><path d="M30 13.5H16.5V0h-3v13.5H0v3h13.5V30h3V16.5H30z"/></symbol><symbol id="lineup" viewBox="0 0 507.22 434.54"><path fill="#F15A29" d="M24.2 382.59c0 .49-.18.94-.54 1.37-.36.43-.88.64-1.57.64h-4.24v4.33c0 .66-.22 1.16-.67 1.5s-.92.51-1.44.51c-.51 0-.98-.17-1.39-.51-.42-.34-.62-.84-.62-1.5v-4.33H9.45c-.69 0-1.2-.21-1.54-.64s-.51-.89-.51-1.37c0-.51.17-.99.51-1.42s.86-.64 1.54-.64h4.29v-4.33c0-.69.21-1.2.64-1.54.43-.34.9-.51 1.41-.51.51 0 .99.17 1.42.51.43.34.64.86.64 1.54v4.33h4.24c.69 0 1.21.21 1.57.64.36.44.54.91.54 1.42zm37.34 9.65c0 .69-.21 1.2-.64 1.54a2.23 2.23 0 0 1-2.84 0c-.43-.34-.64-.86-.64-1.54v-18.18l-4.63 10.72c-.2.43-.5.75-.9.96-.4.21-.83.32-1.29.32-.43 0-.84-.11-1.22-.32-.39-.21-.68-.54-.88-.96l-4.8-10.72v18.18c0 .69-.21 1.2-.64 1.54a2.23 2.23 0 0 1-2.84 0c-.43-.34-.64-.86-.64-1.54v-26.02c0-.54.21-1.02.62-1.44.41-.41.89-.62 1.44-.62h.51c1.06 0 1.76.4 2.1 1.2l6.35 14.15 6.26-14.15c.2-.46.46-.77.77-.94.31-.17.76-.26 1.33-.26h.51c.54 0 1.02.21 1.44.62.41.42.62.89.62 1.44v26.02zm23.11-6.18c0 1.14-.22 2.22-.66 3.24a8.322 8.322 0 0 1-1.78 2.62 8.31 8.31 0 0 1-2.64 1.74c-1.02.43-2.11.64-3.28.64h-.43c-1.14 0-2.22-.21-3.24-.64s-1.9-1.01-2.66-1.74c-.76-.73-1.36-1.6-1.8-2.62s-.66-2.09-.66-3.24v-13.72c0-1.17.22-2.25.66-3.24s1.04-1.85 1.8-2.59a8.27 8.27 0 0 1 2.68-1.74 8.75 8.75 0 0 1 3.26-.62h.39c1.17 0 2.26.21 3.28.62 1.01.42 1.89.99 2.64 1.74.74.74 1.34 1.61 1.78 2.59.44.99.66 2.07.66 3.24v13.72zm-4.12-13.72c0-1.2-.42-2.19-1.24-2.96-.83-.77-1.83-1.16-3-1.16h-.43c-1.17 0-2.17.39-3 1.18-.83.79-1.24 1.76-1.24 2.94v13.72c0 1.2.41 2.19 1.24 2.98.83.79 1.83 1.18 3 1.18h.43c1.17 0 2.17-.39 3-1.18.83-.79 1.24-1.78 1.24-2.98v-13.72zm27.53.82c0 1.86-.5 3.5-1.5 4.93-1 1.43-2.32 2.43-3.94 3l4.89 10.25c.14.34.21.64.21.9 0 .57-.2 1.06-.6 1.46-.4.4-.93.6-1.59.6-.34 0-.67-.09-.99-.28s-.57-.48-.77-.88l-5.53-11.66h-3.47v10.76c0 .69-.21 1.2-.62 1.54-.42.34-.88.51-1.39.51-.54 0-1.03-.17-1.46-.51-.43-.34-.64-.86-.64-1.54v-25.77c0-.54.21-1.02.62-1.44.41-.41.89-.62 1.44-.62h6.99c1.17 0 2.27.22 3.28.66 1.01.44 1.89 1.04 2.64 1.78.74.74 1.34 1.62 1.78 2.64.44 1.02.66 2.11.66 3.28v.39zm-4.12-.39c0-1.2-.39-2.21-1.18-3.04s-1.76-1.24-2.94-1.24h-5.06v8.92h5.1c1.17 0 2.14-.41 2.92-1.24.77-.83 1.16-1.83 1.16-3v-.4zm26.33 19.25c0 .49-.17.94-.51 1.37s-.86.64-1.54.64h-13.03c-.54 0-1.02-.21-1.44-.62-.41-.41-.62-.89-.62-1.44v-25.51c0-.54.21-1.02.62-1.44.41-.41.89-.62 1.44-.62h13.03c.69 0 1.2.21 1.54.64s.51.9.51 1.42c0 .49-.17.94-.51 1.37s-.86.64-1.54.64h-10.98v8.27h7.46c.69 0 1.2.21 1.54.62s.51.88.51 1.39c0 .51-.17.99-.51 1.42s-.86.64-1.54.64h-7.46v9.13h10.98c.69 0 1.2.21 1.54.64s.51.93.51 1.44z"/><path fill="#FFF" d="M49.53 19.28c-.87-1.39-1.95-2.62-3.25-3.67-1.3-1.05-2.77-1.87-4.42-2.46-1.64-.59-3.36-.88-5.16-.88-3.29 0-6.07.64-8.36 1.91-2.29 1.27-4.15 2.97-5.58 5.11-1.43 2.14-2.46 4.57-3.11 7.29-.65 2.73-.98 5.55-.98 8.46 0 2.79.33 5.5.98 8.13.65 2.63 1.69 5 3.11 7.11 1.42 2.11 3.28 3.8 5.58 5.06 2.29 1.27 5.08 1.91 8.36 1.91 4.46 0 7.95-1.36 10.46-4.09 2.51-2.73 4.04-6.32 4.6-10.78h14.13c-.37 4.15-1.33 7.9-2.88 11.25-1.55 3.35-3.59 6.2-6.13 8.55-2.54 2.36-5.51 4.15-8.92 5.39-3.41 1.24-7.16 1.86-11.24 1.86-5.08 0-9.65-.88-13.71-2.65-4.06-1.77-7.48-4.2-10.27-7.29-2.79-3.1-4.92-6.74-6.41-10.92-1.49-4.18-2.23-8.69-2.23-13.52 0-4.96.74-9.56 2.23-13.8s3.62-7.95 6.41-11.11C15.52 6.97 18.94 4.49 23 2.7 27.06.9 31.63 0 36.71 0c3.65 0 7.11.53 10.36 1.58 3.25 1.05 6.16 2.59 8.74 4.6 2.57 2.01 4.69 4.51 6.37 7.48 1.67 2.97 2.72 6.38 3.16 10.22H51.21c-.25-1.67-.81-3.2-1.68-4.6zm20.63 15.38c.19-3.1.96-5.67 2.32-7.71a15.91 15.91 0 0 1 5.2-4.93c2.11-1.24 4.48-2.12 7.11-2.65 2.63-.53 5.28-.79 7.95-.79 2.42 0 4.86.17 7.34.51 2.48.34 4.74 1.01 6.78 2s3.72 2.37 5.02 4.13c1.3 1.77 1.95 4.11 1.95 7.02v25c0 2.17.12 4.24.37 6.23.25 1.98.68 3.47 1.3 4.46h-13.38c-.25-.74-.45-1.5-.6-2.28-.16-.77-.26-1.56-.33-2.37-2.11 2.17-4.59 3.69-7.44 4.55s-5.76 1.3-8.74 1.3c-2.29 0-4.43-.28-6.41-.84-1.98-.56-3.72-1.42-5.2-2.6-1.49-1.18-2.65-2.66-3.49-4.46-.84-1.8-1.25-3.93-1.25-6.41 0-2.73.48-4.97 1.44-6.74.96-1.77 2.2-3.17 3.72-4.23 1.52-1.05 3.25-1.84 5.2-2.37 1.95-.53 3.92-.94 5.9-1.25 1.98-.31 3.93-.56 5.85-.74 1.92-.19 3.62-.46 5.11-.84 1.49-.37 2.66-.91 3.53-1.63.87-.71 1.27-1.75 1.21-3.11 0-1.42-.23-2.56-.7-3.39-.46-.84-1.08-1.49-1.86-1.95-.78-.46-1.67-.77-2.7-.93-1.02-.15-2.12-.23-3.3-.23-2.6 0-4.65.56-6.13 1.67-1.49 1.12-2.36 2.97-2.6 5.58H70.16zm30.49 9.76c-.56.5-1.25.88-2.09 1.16-.84.28-1.74.51-2.69.7-.96.19-1.97.34-3.02.46s-2.11.28-3.16.46c-.99.19-1.97.43-2.93.74-.96.31-1.8.73-2.51 1.25-.71.53-1.29 1.19-1.72 2-.43.81-.65 1.83-.65 3.07 0 1.18.22 2.17.65 2.97a4.94 4.94 0 0 0 1.77 1.91c.74.46 1.61.79 2.6.98.99.19 2.01.28 3.07.28 2.6 0 4.61-.43 6.04-1.3 1.42-.87 2.48-1.9 3.16-3.11.68-1.21 1.1-2.43 1.25-3.67.15-1.24.23-2.23.23-2.97v-4.93zm32.24-24.53v8.92h.19c.62-1.49 1.46-2.87 2.51-4.14 1.05-1.27 2.26-2.35 3.62-3.25 1.36-.9 2.82-1.59 4.37-2.09 1.55-.5 3.16-.74 4.83-.74.87 0 1.83.16 2.88.46v12.27c-.62-.12-1.36-.23-2.23-.33-.87-.09-1.7-.14-2.51-.14-2.42 0-4.46.4-6.13 1.21-1.67.81-3.02 1.91-4.04 3.3s-1.75 3.02-2.18 4.88c-.43 1.86-.65 3.87-.65 6.04v21.65h-13.2V19.89h12.54zm33.46-18.31v66.35h-13.2V1.58h13.2zm72.76 17.7c-.87-1.39-1.95-2.62-3.25-3.67-1.3-1.05-2.77-1.87-4.42-2.46-1.64-.59-3.36-.88-5.16-.88-3.29 0-6.07.64-8.36 1.91-2.29 1.27-4.15 2.97-5.58 5.11-1.43 2.14-2.46 4.57-3.11 7.29-.65 2.73-.98 5.55-.98 8.46 0 2.79.33 5.5.98 8.13.65 2.63 1.69 5 3.11 7.11 1.42 2.11 3.28 3.8 5.58 5.06 2.29 1.27 5.08 1.91 8.36 1.91 4.46 0 7.95-1.36 10.46-4.09 2.51-2.73 4.04-6.32 4.6-10.78h14.13c-.37 4.15-1.33 7.9-2.88 11.25-1.55 3.35-3.59 6.2-6.13 8.55-2.54 2.36-5.51 4.15-8.92 5.39-3.41 1.24-7.16 1.86-11.24 1.86-5.08 0-9.65-.88-13.71-2.65-4.06-1.77-7.48-4.2-10.27-7.29-2.79-3.1-4.92-6.74-6.41-10.92-1.49-4.18-2.23-8.69-2.23-13.52 0-4.96.74-9.56 2.23-13.8s3.62-7.95 6.41-11.11c2.79-3.16 6.21-5.64 10.27-7.43 4.06-1.8 8.63-2.7 13.71-2.7 3.65 0 7.11.53 10.36 1.58 3.25 1.05 6.16 2.59 8.74 4.6 2.57 2.01 4.69 4.51 6.37 7.48 1.67 2.97 2.72 6.38 3.16 10.22H240.8c-.26-1.68-.82-3.21-1.69-4.61zm21.47 14.22c1.18-3.13 2.85-5.79 5.02-7.99 2.17-2.2 4.77-3.9 7.81-5.11 3.04-1.21 6.44-1.81 10.22-1.81 3.78 0 7.2.6 10.27 1.81 3.07 1.21 5.68 2.91 7.85 5.11s3.84 4.86 5.02 7.99c1.18 3.13 1.77 6.61 1.77 10.46 0 3.84-.59 7.31-1.77 10.41-1.18 3.1-2.85 5.75-5.02 7.95-2.17 2.2-4.79 3.89-7.85 5.06-3.07 1.18-6.49 1.77-10.27 1.77-3.78 0-7.19-.59-10.22-1.77-3.04-1.18-5.64-2.87-7.81-5.06-2.17-2.2-3.84-4.85-5.02-7.95-1.18-3.1-1.77-6.57-1.77-10.41.01-3.84.59-7.33 1.77-10.46zm11.99 16.08c.37 1.83 1.01 3.47 1.91 4.93.9 1.46 2.09 2.62 3.58 3.48 1.49.87 3.35 1.3 5.58 1.3s4.1-.43 5.62-1.3c1.52-.87 2.73-2.03 3.62-3.48.9-1.46 1.53-3.1 1.91-4.93.37-1.83.56-3.7.56-5.62s-.19-3.81-.56-5.67c-.37-1.86-1.01-3.5-1.91-4.93-.9-1.42-2.11-2.59-3.62-3.49-1.52-.9-3.39-1.35-5.62-1.35s-4.09.45-5.58 1.35c-1.49.9-2.68 2.06-3.58 3.49-.9 1.43-1.53 3.07-1.91 4.93-.37 1.86-.56 3.75-.56 5.67s.19 3.79.56 5.62zm37.27-29.69h15.05l8.46 12.55 8.36-12.55h14.59l-15.8 22.49 17.75 25.56H343.2l-10.04-15.15-10.04 15.15h-14.78l17.29-25.28-15.79-22.77zM40.05 91.23l24.81 66.35H49.72L44.7 142.8H19.89l-5.2 14.78H0l25.09-66.35h14.96zm.84 40.71l-8.36-24.35h-.19l-8.64 24.35h17.19zm58.73 19.52c-1.55 2.6-3.58 4.48-6.09 5.62-2.51 1.15-5.34 1.72-8.5 1.72-3.59 0-6.75-.7-9.48-2.09-2.73-1.39-4.97-3.28-6.74-5.67-1.77-2.38-3.1-5.13-4-8.22-.9-3.1-1.35-6.32-1.35-9.67 0-3.22.45-6.33 1.35-9.34.9-3 2.23-5.65 4-7.95s3.98-4.14 6.64-5.53c2.66-1.39 5.76-2.09 9.29-2.09 2.85 0 5.56.6 8.13 1.81 2.57 1.21 4.6 2.99 6.09 5.34h.19V91.23h13.2v66.35H99.81v-6.13h-.19zm-.55-23.75c-.37-1.83-1.01-3.44-1.91-4.83a10.77 10.77 0 0 0-3.49-3.39c-1.43-.87-3.22-1.3-5.39-1.3-2.17 0-4 .43-5.48 1.3-1.49.87-2.68 2.01-3.58 3.44-.9 1.43-1.55 3.05-1.95 4.88-.4 1.83-.6 3.73-.6 5.72 0 1.86.22 3.72.65 5.58.43 1.86 1.13 3.52 2.09 4.97.96 1.46 2.17 2.63 3.62 3.53 1.46.9 3.21 1.35 5.25 1.35 2.17 0 3.98-.43 5.44-1.3a9.942 9.942 0 0 0 3.49-3.48c.87-1.46 1.49-3.11 1.86-4.97.37-1.86.56-3.78.56-5.76-.01-2.01-.19-3.91-.56-5.74zm18.95-3.39c.19-3.1.96-5.67 2.32-7.71a15.91 15.91 0 0 1 5.2-4.93c2.11-1.24 4.48-2.12 7.11-2.65 2.63-.53 5.28-.79 7.95-.79 2.42 0 4.86.17 7.34.51 2.48.34 4.74 1.01 6.78 2s3.72 2.37 5.02 4.13c1.3 1.77 1.95 4.11 1.95 7.02v25c0 2.17.12 4.24.37 6.23.25 1.98.68 3.47 1.3 4.46h-13.38c-.25-.74-.45-1.5-.6-2.28-.16-.77-.26-1.56-.33-2.37-2.11 2.17-4.59 3.69-7.44 4.55s-5.76 1.3-8.74 1.3c-2.29 0-4.43-.28-6.41-.84-1.98-.56-3.72-1.42-5.2-2.6-1.49-1.18-2.65-2.66-3.49-4.46-.84-1.8-1.25-3.93-1.25-6.41 0-2.73.48-4.97 1.44-6.74.96-1.77 2.2-3.17 3.72-4.23 1.52-1.05 3.25-1.84 5.2-2.37 1.95-.53 3.92-.94 5.9-1.25 1.98-.31 3.93-.56 5.85-.74 1.92-.19 3.62-.46 5.11-.84 1.49-.37 2.66-.91 3.53-1.63.87-.71 1.27-1.75 1.21-3.11 0-1.42-.23-2.56-.7-3.39-.46-.84-1.08-1.49-1.86-1.95-.78-.46-1.67-.77-2.7-.93-1.02-.15-2.12-.23-3.3-.23-2.6 0-4.65.56-6.13 1.67-1.49 1.12-2.36 2.97-2.6 5.58h-13.17zm30.49 9.76c-.56.5-1.25.88-2.09 1.16-.84.28-1.74.51-2.69.7-.96.19-1.97.34-3.02.46s-2.11.28-3.16.46c-.99.19-1.97.43-2.93.74-.96.31-1.8.73-2.51 1.25-.71.53-1.29 1.19-1.72 2-.43.81-.65 1.83-.65 3.07 0 1.18.22 2.17.65 2.97a4.94 4.94 0 0 0 1.77 1.91c.74.46 1.61.79 2.6.98.99.19 2.01.28 3.07.28 2.6 0 4.61-.43 6.04-1.3 1.42-.87 2.48-1.9 3.16-3.11.68-1.21 1.1-2.43 1.25-3.67.15-1.24.23-2.23.23-2.97v-4.93zm32.52-24.54v6.51h.19c1.73-2.48 3.82-4.4 6.27-5.76 2.45-1.36 5.25-2.04 8.41-2.04 3.03 0 5.81.59 8.32 1.77 2.51 1.18 4.41 3.25 5.71 6.23 1.42-2.11 3.36-3.96 5.81-5.58 2.45-1.61 5.34-2.42 8.69-2.42 2.54 0 4.89.31 7.06.93 2.17.62 4.03 1.61 5.58 2.97 1.55 1.36 2.76 3.15 3.62 5.34.87 2.2 1.3 4.85 1.3 7.95v32.16h-13.2v-27.23c0-1.61-.06-3.13-.19-4.55-.12-1.42-.46-2.66-1.02-3.72-.56-1.05-1.38-1.89-2.46-2.51-1.08-.62-2.56-.93-4.42-.93-1.86 0-3.36.36-4.51 1.07a7.758 7.758 0 0 0-2.7 2.79c-.65 1.15-1.08 2.45-1.3 3.9-.22 1.46-.33 2.93-.33 4.41v26.76h-13.2v-26.95c0-1.42-.03-2.83-.09-4.23-.06-1.39-.33-2.68-.79-3.86-.46-1.18-1.24-2.12-2.32-2.83-1.08-.71-2.68-1.07-4.79-1.07-.62 0-1.44.14-2.46.42-1.02.28-2.01.81-2.97 1.58-.96.78-1.78 1.89-2.46 3.35-.68 1.46-1.02 3.36-1.02 5.72v27.88h-13.2v-48.05h12.47zm122.39-18.31c3.16 0 6.04.28 8.64.84 2.6.56 4.83 1.47 6.69 2.74 1.86 1.27 3.3 2.96 4.32 5.06 1.02 2.11 1.53 4.71 1.53 7.81 0 3.35-.76 6.13-2.28 8.36-1.52 2.23-3.76 4.06-6.74 5.48 4.09 1.18 7.14 3.24 9.15 6.18 2.01 2.94 3.02 6.49 3.02 10.64 0 3.35-.65 6.24-1.95 8.69-1.3 2.45-3.05 4.45-5.25 5.99-2.2 1.55-4.71 2.7-7.53 3.44a34.12 34.12 0 0 1-8.69 1.12H272.2V91.23h31.22zm-1.85 26.86c2.6 0 4.74-.62 6.41-1.86 1.67-1.24 2.51-3.25 2.51-6.04 0-1.55-.28-2.82-.84-3.81-.56-.99-1.3-1.77-2.23-2.32-.93-.56-2-.94-3.21-1.16-1.21-.22-2.46-.33-3.76-.33h-13.66v15.52h14.78zm.83 28.16c1.42 0 2.79-.14 4.09-.42 1.3-.28 2.45-.74 3.44-1.39.99-.65 1.78-1.53 2.37-2.65s.88-2.54.88-4.27c0-3.41-.96-5.84-2.88-7.3s-4.46-2.18-7.62-2.18h-15.89v18.21h15.61zm44.24-.18c1.98 1.92 4.83 2.88 8.55 2.88 2.66 0 4.96-.67 6.88-2s3.1-2.74 3.53-4.23h11.62c-1.86 5.76-4.71 9.88-8.55 12.36-3.84 2.48-8.49 3.72-13.94 3.72-3.78 0-7.19-.6-10.22-1.81-3.04-1.21-5.61-2.93-7.71-5.16-2.11-2.23-3.73-4.89-4.88-7.99-1.15-3.1-1.72-6.51-1.72-10.22 0-3.59.59-6.94 1.77-10.04 1.18-3.1 2.85-5.78 5.02-8.04 2.17-2.26 4.75-4.04 7.76-5.34 3-1.3 6.33-1.95 9.99-1.95 4.09 0 7.65.79 10.69 2.37 3.03 1.58 5.53 3.7 7.48 6.37 1.95 2.67 3.36 5.7 4.23 9.11.87 3.41 1.18 6.97.93 10.69h-34.66c.16 4.26 1.24 7.36 3.23 9.28zm14.91-25.28c-1.58-1.73-3.98-2.6-7.2-2.6-2.11 0-3.86.36-5.25 1.07-1.39.71-2.51 1.6-3.35 2.65-.84 1.05-1.43 2.17-1.77 3.35-.34 1.18-.54 2.23-.6 3.16h21.47c-.62-3.36-1.72-5.9-3.3-7.63zm38.34 51.11c-2.54 1.67-6.07 2.51-10.59 2.51-1.36 0-2.71-.05-4.04-.14-1.33-.09-2.68-.2-4.04-.33v-10.87c1.24.12 2.51.25 3.81.37 1.3.12 2.6.15 3.9.09 1.73-.19 3.02-.87 3.86-2.04a6.566 6.566 0 0 0 1.25-3.9c0-1.05-.19-2.04-.56-2.97l-16.82-45.07h14.03l10.87 32.9h.19l10.5-32.9h13.66l-20.07 53.99c-1.43 3.9-3.41 6.69-5.95 8.36zm40.89-25.83c1.98 1.92 4.83 2.88 8.55 2.88 2.66 0 4.96-.67 6.88-2s3.1-2.74 3.53-4.23h11.62c-1.86 5.76-4.71 9.88-8.55 12.36-3.84 2.48-8.49 3.72-13.94 3.72-3.78 0-7.19-.6-10.22-1.81-3.04-1.21-5.61-2.93-7.71-5.16-2.11-2.23-3.73-4.89-4.88-7.99-1.15-3.1-1.72-6.51-1.72-10.22 0-3.59.59-6.94 1.77-10.04 1.18-3.1 2.85-5.78 5.02-8.04 2.17-2.26 4.75-4.04 7.76-5.34 3-1.3 6.33-1.95 9.99-1.95 4.09 0 7.65.79 10.69 2.37 3.03 1.58 5.53 3.7 7.48 6.37 1.95 2.67 3.36 5.7 4.23 9.11.87 3.41 1.18 6.97.93 10.69h-34.66c.16 4.26 1.24 7.36 3.23 9.28zm14.91-25.28c-1.58-1.73-3.98-2.6-7.2-2.6-2.11 0-3.86.36-5.25 1.07-1.39.71-2.51 1.6-3.35 2.65-.84 1.05-1.43 2.17-1.77 3.35-.34 1.18-.54 2.23-.6 3.16h21.47c-.62-3.36-1.72-5.9-3.3-7.63zm33.13-11.25v8.92h.19c.62-1.49 1.46-2.87 2.51-4.14 1.05-1.27 2.26-2.35 3.62-3.25 1.36-.9 2.82-1.59 4.37-2.09 1.55-.5 3.16-.74 4.83-.74.87 0 1.83.16 2.88.46v12.27c-.62-.12-1.36-.23-2.23-.33-.87-.09-1.7-.14-2.51-.14-2.42 0-4.46.4-6.13 1.21-1.67.81-3.02 1.91-4.04 3.3s-1.75 3.02-2.18 4.88c-.43 1.86-.65 3.87-.65 6.04v21.65h-13.2v-48.05h12.54zM21.47 180.89l27.69 44.52h.19v-44.52h13.66v66.35H48.42l-27.6-44.42h-.19v44.42H6.97v-66.35h14.5zM71 212.81c1.18-3.13 2.85-5.79 5.02-7.99 2.17-2.2 4.77-3.9 7.81-5.11 3.04-1.21 6.44-1.81 10.22-1.81 3.78 0 7.2.6 10.27 1.81 3.07 1.21 5.68 2.91 7.85 5.11s3.84 4.86 5.02 7.99c1.18 3.13 1.77 6.61 1.77 10.46 0 3.84-.59 7.31-1.77 10.41-1.18 3.1-2.85 5.75-5.02 7.95-2.17 2.2-4.79 3.89-7.85 5.06-3.07 1.18-6.49 1.77-10.27 1.77-3.78 0-7.19-.59-10.22-1.77-3.04-1.18-5.64-2.87-7.81-5.06-2.17-2.2-3.84-4.85-5.02-7.95-1.18-3.1-1.77-6.57-1.77-10.41 0-3.85.59-7.33 1.77-10.46zm11.99 16.08c.37 1.83 1.01 3.47 1.91 4.93.9 1.46 2.09 2.62 3.58 3.48 1.49.87 3.35 1.3 5.58 1.3s4.1-.43 5.62-1.3c1.52-.87 2.73-2.03 3.62-3.48.9-1.46 1.53-3.1 1.91-4.93.37-1.83.56-3.7.56-5.62s-.19-3.81-.56-5.67c-.37-1.86-1.01-3.5-1.91-4.93-.9-1.42-2.11-2.59-3.62-3.49-1.52-.9-3.39-1.35-5.62-1.35s-4.09.45-5.58 1.35c-1.49.9-2.68 2.06-3.58 3.49-.9 1.43-1.53 3.07-1.91 4.93-.37 1.86-.56 3.75-.56 5.67s.19 3.79.56 5.62zm41.17-37.13v-10.87h13.2v10.87h-13.2zm13.19 7.44v48.05h-13.2V199.2h13.2zm19.24 0v8.92h.19c.62-1.49 1.46-2.87 2.51-4.14 1.05-1.27 2.26-2.35 3.62-3.25 1.36-.9 2.82-1.59 4.37-2.09 1.55-.5 3.16-.74 4.83-.74.87 0 1.83.16 2.88.46v12.27c-.62-.12-1.36-.23-2.23-.33-.87-.09-1.7-.14-2.51-.14-2.42 0-4.46.4-6.13 1.21-1.67.81-3.02 1.91-4.04 3.3s-1.75 3.02-2.18 4.88c-.43 1.86-.65 3.87-.65 6.04v21.65h-13.2V199.2h12.54zm50.93-11.53l1.86 4.46-10.13 3.53 6.13 8.46-3.81 2.88-6.41-8.92-6.04 8.92-4.18-2.88 6.04-8.46-9.85-3.53 1.67-4.46 9.85 3.72v-10.5h4.93v10.5l9.94-3.72zM56.6 270.54v12.27H21.56v14.22h32.16v11.34H21.56v16.26h35.78v12.27H6.97v-66.35H56.6zm18.02 18.31v8.92h.19c.62-1.49 1.46-2.87 2.51-4.14 1.05-1.27 2.26-2.35 3.62-3.25 1.36-.9 2.82-1.59 4.37-2.09 1.55-.5 3.16-.74 4.83-.74.87 0 1.83.16 2.88.46v12.27c-.62-.12-1.36-.23-2.23-.33-.87-.09-1.7-.14-2.51-.14-2.42 0-4.46.4-6.13 1.21-1.67.81-3.02 1.91-4.04 3.3s-1.75 3.02-2.18 4.88c-.43 1.86-.65 3.87-.65 6.04v21.65h-13.2v-48.05h12.54zm20.26-7.43v-10.87h13.2v10.87h-13.2zm13.2 7.43v48.05h-13.2v-48.05h13.2zm29.65 8.64c-2.11 0-3.87.48-5.3 1.44-1.43.96-2.59 2.2-3.49 3.72-.9 1.52-1.53 3.19-1.91 5.02a27.38 27.38 0 0 0-.56 5.44c0 1.74.19 3.5.56 5.3.37 1.8.98 3.42 1.81 4.88.84 1.46 1.97 2.65 3.39 3.58 1.42.93 3.16 1.39 5.2 1.39 3.16 0 5.59-.88 7.29-2.65 1.7-1.77 2.77-4.14 3.21-7.11h12.73c-.87 6.38-3.35 11.24-7.43 14.59-4.09 3.35-9.33 5.02-15.71 5.02-3.59 0-6.89-.6-9.9-1.81-3.01-1.21-5.56-2.9-7.67-5.06-2.11-2.17-3.75-4.75-4.93-7.76-1.18-3-1.77-6.3-1.77-9.9 0-3.72.54-7.17 1.63-10.36 1.08-3.19 2.68-5.95 4.79-8.27 2.11-2.32 4.68-4.14 7.71-5.44 3.04-1.3 6.51-1.95 10.41-1.95 2.85 0 5.59.37 8.22 1.12 2.63.74 4.99 1.88 7.06 3.39 2.08 1.52 3.76 3.41 5.06 5.67 1.3 2.26 2.04 4.94 2.23 8.04h-12.92c-.82-5.53-4.08-8.29-9.71-8.29zm80.1-26.95c4.15 0 7.68.6 10.59 1.81s5.28 2.8 7.11 4.79c1.83 1.98 3.16 4.24 4 6.78.84 2.54 1.25 5.17 1.25 7.9 0 2.66-.42 5.28-1.25 7.85-.84 2.57-2.17 4.85-4 6.83-1.83 1.98-4.2 3.58-7.11 4.79s-6.44 1.81-10.59 1.81H202.5v23.79h-14.59v-66.35h29.92zm-3.99 31.23c1.67 0 3.28-.12 4.83-.37 1.55-.25 2.91-.73 4.09-1.44 1.18-.71 2.12-1.72 2.83-3.02s1.07-3 1.07-5.11c0-2.11-.36-3.81-1.07-5.11-.71-1.3-1.66-2.31-2.83-3.02-1.18-.71-2.54-1.19-4.09-1.44-1.55-.25-3.16-.37-4.83-.37H202.5v19.89h11.34zm31.22.69c1.18-3.13 2.85-5.79 5.02-7.99 2.17-2.2 4.77-3.9 7.81-5.11 3.04-1.21 6.44-1.81 10.22-1.81 3.78 0 7.2.6 10.27 1.81 3.07 1.21 5.68 2.91 7.85 5.11s3.84 4.86 5.02 7.99c1.18 3.13 1.77 6.61 1.77 10.46 0 3.84-.59 7.31-1.77 10.41-1.18 3.1-2.85 5.75-5.02 7.95-2.17 2.2-4.79 3.89-7.85 5.06-3.07 1.18-6.49 1.77-10.27 1.77-3.78 0-7.19-.59-10.22-1.77-3.04-1.18-5.64-2.87-7.81-5.06-2.17-2.2-3.84-4.85-5.02-7.95-1.18-3.1-1.77-6.57-1.77-10.41.01-3.84.59-7.33 1.77-10.46zm11.99 16.08c.37 1.83 1.01 3.47 1.91 4.93.9 1.46 2.09 2.62 3.58 3.48 1.49.87 3.35 1.3 5.58 1.3s4.1-.43 5.62-1.3c1.52-.87 2.73-2.03 3.62-3.48.9-1.46 1.53-3.1 1.91-4.93.37-1.83.56-3.7.56-5.62s-.19-3.81-.56-5.67c-.37-1.86-1.01-3.5-1.91-4.93-.9-1.42-2.11-2.59-3.62-3.49-1.52-.9-3.39-1.35-5.62-1.35s-4.09.45-5.58 1.35c-1.49.9-2.68 2.06-3.58 3.49-.9 1.43-1.53 3.07-1.91 4.93-.37 1.86-.56 3.75-.56 5.67s.19 3.8.56 5.62zm82.15 18.36l-8.55-32.25h-.19l-8.18 32.25h-13.66l-15.24-48.05h13.94l8.83 32.62h.19l7.99-32.62h12.83l8.18 32.53h.19l8.83-32.53h13.57l-15.15 48.05H339.2zm44.7-11.53c1.98 1.92 4.83 2.88 8.55 2.88 2.66 0 4.96-.67 6.88-2s3.1-2.74 3.53-4.23h11.62c-1.86 5.76-4.71 9.88-8.55 12.36-3.84 2.48-8.49 3.72-13.94 3.72-3.78 0-7.19-.6-10.22-1.81-3.04-1.21-5.61-2.93-7.71-5.16-2.11-2.23-3.73-4.89-4.88-7.99-1.15-3.1-1.72-6.51-1.72-10.22 0-3.59.59-6.94 1.77-10.04 1.18-3.1 2.85-5.78 5.02-8.04 2.17-2.26 4.75-4.04 7.76-5.34 3-1.3 6.33-1.95 9.99-1.95 4.09 0 7.65.79 10.69 2.37 3.03 1.58 5.53 3.7 7.48 6.37 1.95 2.67 3.36 5.7 4.23 9.11.87 3.41 1.18 6.97.93 10.69h-34.66c.17 4.26 1.25 7.36 3.23 9.28zm14.92-25.28c-1.58-1.73-3.98-2.6-7.2-2.6-2.11 0-3.86.36-5.25 1.07-1.39.71-2.51 1.6-3.35 2.65-.84 1.05-1.43 2.17-1.77 3.35-.34 1.18-.54 2.23-.6 3.16h21.47c-.62-3.35-1.72-5.89-3.3-7.63zm34.15-29.55v66.35h-13.2v-66.35h13.2zm20.26 0v66.35h-13.2v-66.35h13.2zM16.01 423.25l.81 2.31-3.54 1.17 2.22 2.94-1.98 1.47-2.22-3.09-2.1 3.09-2.01-1.47 2.22-2.94-3.48-1.17.81-2.31 3.39 1.32v-3.75h2.4v3.75l3.48-1.32zm9.07-2.58l5.66 9.1h.04v-9.1h2.79v13.57h-2.98l-5.64-9.08h-.04v9.08h-2.79v-13.57h2.96zm10.98 4.02c.3-.87.74-1.62 1.31-2.27.57-.65 1.27-1.15 2.1-1.52.83-.37 1.76-.55 2.8-.55 1.05 0 1.99.18 2.81.55s1.52.87 2.09 1.52c.57.65 1.01 1.4 1.31 2.27.3.87.46 1.81.46 2.82 0 .99-.15 1.91-.46 2.76-.3.86-.74 1.6-1.31 2.23-.57.63-1.27 1.13-2.09 1.49-.82.36-1.76.54-2.81.54-1.04 0-1.97-.18-2.8-.54a6.03 6.03 0 0 1-2.1-1.49 6.54 6.54 0 0 1-1.31-2.23 8.28 8.28 0 0 1-.46-2.76c.01-1.01.16-1.95.46-2.82zm2.73 4.48c.13.54.34 1.02.64 1.45.29.43.67.78 1.14 1.04s1.04.39 1.71.39c.67 0 1.24-.13 1.71-.39s.85-.61 1.14-1.04c.29-.43.5-.92.64-1.45.13-.54.2-1.09.2-1.66 0-.6-.07-1.17-.2-1.73s-.35-1.05-.64-1.49c-.29-.44-.67-.79-1.14-1.04s-1.04-.39-1.71-.39c-.67 0-1.24.13-1.71.39s-.85.61-1.14 1.04c-.29.44-.5.93-.64 1.49s-.2 1.13-.2 1.73c0 .57.07 1.12.2 1.66zm11.12-5.99v-2.51h11.12v2.51h-4.07v11.06h-2.98v-11.06h-4.07zm24.08-2.51c.85 0 1.57.12 2.17.37s1.08.57 1.45.98c.37.41.65.87.82 1.39s.26 1.06.26 1.62c0 .54-.09 1.08-.26 1.61s-.44.99-.82 1.4c-.37.41-.86.73-1.45.98s-1.32.37-2.17.37h-3.13v4.86h-2.98v-13.57h6.11zm-.82 6.38c.34 0 .67-.03.99-.08s.6-.15.84-.29c.24-.15.43-.35.58-.62s.22-.61.22-1.04-.07-.78-.22-1.04c-.15-.27-.34-.47-.58-.62-.24-.15-.52-.24-.84-.29s-.65-.08-.99-.08h-2.32v4.07h2.32zm10.35-6.38v11.06h6.61v2.51h-9.6v-13.57h2.99zm15.05 0l5.07 13.57h-3.1l-1.03-3.02h-5.07l-1.06 3.02h-3l5.13-13.57h3.06zm.17 8.32l-1.71-4.98h-.04l-1.77 4.98h3.52zm3.21-8.32h3.34l3.17 5.36 3.15-5.36h3.33l-5.04 8.36v5.21h-2.98v-5.28l-4.97-8.29zm17.12 0v13.57h-2.98v-13.57h2.98zm5.59 0l5.66 9.1h.04v-9.1h2.79v13.57h-2.98l-5.64-9.08h-.04v9.08h-2.79v-13.57h2.96zm19.15 13.46c-.65.27-1.3.41-1.96.41-1.04 0-1.97-.18-2.8-.54a6.03 6.03 0 0 1-2.1-1.49 6.54 6.54 0 0 1-1.31-2.23 8.28 8.28 0 0 1-.46-2.76c0-1.01.15-1.95.46-2.82.3-.87.74-1.62 1.31-2.27.57-.65 1.27-1.15 2.1-1.52.83-.37 1.76-.55 2.8-.55.7 0 1.37.1 2.02.31s1.24.52 1.77.92c.53.41.96.91 1.3 1.5.34.6.55 1.28.63 2.05h-2.85c-.18-.76-.52-1.33-1.03-1.71-.51-.38-1.12-.57-1.84-.57-.67 0-1.24.13-1.71.39s-.85.61-1.14 1.04c-.29.44-.5.93-.64 1.49s-.2 1.13-.2 1.73c0 .57.07 1.12.2 1.66s.34 1.02.64 1.45c.29.43.67.78 1.14 1.04s1.04.39 1.71.39c.99 0 1.75-.25 2.29-.75s.85-1.23.94-2.18h-3v-2.22h5.7v7.33h-1.9l-.3-1.54c-.54.69-1.12 1.17-1.77 1.44zm14.63-13.46l5.66 9.1h.04v-9.1h2.79v13.57h-2.98l-5.64-9.08h-.04v9.08h-2.79v-13.57h2.96zm17.52 2.51h-6.71v-2.51h10.68v2.36l-7.28 8.7h7.47v2.51h-11.44v-2.36l7.28-8.7z"/></symbol><symbol id="logo" viewBox="0 0 810.3 290.82"><path d="M38.26 69.32C19.11 69.32 3.6 53.81 3.6 34.66S19.11 0 38.26 0s34.65 15.51 34.65 34.66-15.5 34.66-34.65 34.66zM26.04 46.88c-1.38-1.39-3.56-1.39-4.93 0-1.39 1.38-1.39 3.55 0 4.94 1.38 1.39 3.56 1.39 4.93 0 1.39-1.39 1.39-3.56 0-4.94zm7.28-7.28c-1.38-1.38-3.46-1.38-4.86 0-1.38 1.39-1.38 3.47 0 4.85 1.39 1.39 3.47 1.39 4.86 0 1.39-1.39 1.39-3.46 0-4.85zm7.37-7.37c-1.39-1.38-3.48-1.38-4.86 0-1.38 1.39-1.38 3.47 0 4.85 1.39 1.39 3.47 1.39 4.86 0 1.38-1.38 1.38-3.46 0-4.85zm7.36-7.36c-1.38-1.39-3.47-1.39-4.85 0-1.39 1.38-1.39 3.46 0 4.85 1.38 1.38 3.46 1.38 4.85 0 1.39-1.39 1.39-3.47 0-4.85zm7.36-7.37c-1.38-1.38-3.55-1.38-4.94 0-1.38 1.39-1.38 3.55 0 4.94 1.39 1.38 3.56 1.38 4.94 0 1.39-1.39 1.39-3.55 0-4.94zm69.49 51.82c-19.15 0-34.66-15.51-34.66-34.66S105.75 0 124.9 0c19.14 0 34.66 15.51 34.66 34.66s-15.52 34.66-34.66 34.66zm17.85-32.93l-15.42-12.91c-.87-.69-1.65-.95-2.43-.95-.87 0-1.65.26-2.43.95l-15.42 12.91c-1.47 1.21-1.64 3.46-.43 4.94 1.21 1.47 3.46 1.64 4.94.43l13.43-11.26 13.34 11.26c1.47 1.22 3.63 1.04 4.85-.43 1.22-1.47 1.04-3.73-.43-4.94zm68.79 32.93c-19.14 0-34.66-15.51-34.66-34.66S192.39 0 211.54 0s34.66 15.51 34.66 34.66-15.51 34.66-34.66 34.66zM199.32 17.5c-1.38-1.38-3.55-1.38-4.94 0-1.39 1.39-1.39 3.55 0 4.94 1.38 1.38 3.55 1.38 4.94 0 1.39-1.39 1.39-3.55 0-4.94zm0 29.38c-1.38-1.39-3.55-1.39-4.94 0-1.39 1.38-1.39 3.55 0 4.94 1.38 1.39 3.55 1.39 4.94 0 1.39-1.39 1.39-3.56 0-4.94zm7.28-22.01c-1.38-1.39-3.46-1.39-4.85 0-1.38 1.38-1.38 3.46 0 4.85 1.39 1.38 3.47 1.38 4.85 0 1.39-1.39 1.39-3.47 0-4.85zm0 14.73c-1.38-1.38-3.46-1.38-4.85 0-1.38 1.39-1.38 3.47 0 4.85 1.39 1.39 3.47 1.39 4.85 0 1.39-1.39 1.39-3.46 0-4.85zm7.37-7.37c-1.38-1.38-3.47-1.38-4.85 0-1.39 1.39-1.39 3.47 0 4.85 1.39 1.39 3.47 1.39 4.85 0 1.38-1.38 1.38-3.46 0-4.85zm7.36-7.36c-1.38-1.39-3.46-1.39-4.85 0-1.39 1.38-1.39 3.46 0 4.85 1.39 1.38 3.47 1.38 4.85 0 1.39-1.39 1.39-3.47 0-4.85zm0 14.73c-1.38-1.38-3.46-1.38-4.85 0-1.39 1.39-1.39 3.47 0 4.85 1.39 1.39 3.47 1.39 4.85 0 1.39-1.39 1.39-3.46 0-4.85zm7.36-22.1c-1.38-1.38-3.55-1.38-4.94 0-1.38 1.39-1.38 3.55 0 4.94 1.39 1.38 3.55 1.38 4.94 0 1.4-1.39 1.4-3.55 0-4.94zm0 29.38c-1.38-1.39-3.55-1.39-4.94 0-1.38 1.38-1.38 3.55 0 4.94 1.39 1.39 3.55 1.39 4.94 0 1.4-1.39 1.4-3.56 0-4.94zm69.49 22.44c-19.14 0-34.66-15.51-34.66-34.66S279.04 0 298.18 0c19.15 0 34.66 15.51 34.66 34.66s-15.51 34.66-34.66 34.66zM277.39 31.2c-1.9 0-3.47 1.56-3.47 3.46a3.47 3.47 0 0 0 3.47 3.46c1.9 0 3.46-1.56 3.46-3.46s-1.56-3.46-3.46-3.46zm8.58-13.7c-1.39-1.38-3.55-1.38-4.94 0-1.39 1.39-1.39 3.55 0 4.94 1.39 1.38 3.55 1.38 4.94 0 1.38-1.39 1.38-3.55 0-4.94zm0 29.38c-1.39-1.39-3.55-1.39-4.94 0-1.39 1.38-1.39 3.55 0 4.94 1.39 1.39 3.55 1.39 4.94 0 1.38-1.39 1.38-3.56 0-4.94zm7.27-22.01c-1.39-1.39-3.46-1.39-4.85 0-1.39 1.38-1.39 3.46 0 4.85 1.39 1.38 3.46 1.38 4.85 0 1.39-1.39 1.39-3.47 0-4.85zm0 14.73c-1.39-1.38-3.46-1.38-4.85 0-1.39 1.39-1.39 3.47 0 4.85 1.39 1.39 3.46 1.39 4.85 0 1.39-1.39 1.39-3.46 0-4.85zm4.94-29.2c-1.9 0-3.46 1.56-3.46 3.47 0 1.91 1.56 3.47 3.46 3.47 1.91 0 3.47-1.56 3.47-3.47 0-1.91-1.56-3.47-3.47-3.47zm2.43 21.83c-1.39-1.38-3.47-1.38-4.86 0-1.39 1.39-1.39 3.47 0 4.85 1.38 1.39 3.47 1.39 4.86 0 1.39-1.38 1.39-3.46 0-4.85zm-2.43 19.76c-1.9 0-3.46 1.56-3.46 3.46 0 1.91 1.56 3.47 3.46 3.47 1.91 0 3.47-1.56 3.47-3.47 0-1.9-1.56-3.46-3.47-3.46zm9.8-27.12c-1.39-1.39-3.47-1.39-4.86 0-1.38 1.38-1.38 3.46 0 4.85 1.39 1.38 3.46 1.38 4.86 0 1.38-1.39 1.38-3.47 0-4.85zm0 14.73c-1.39-1.38-3.47-1.38-4.86 0-1.38 1.39-1.38 3.47 0 4.85 1.39 1.39 3.46 1.39 4.86 0 1.38-1.39 1.38-3.46 0-4.85zm7.35-22.1a3.453 3.453 0 0 0-4.93 0c-1.39 1.39-1.39 3.55 0 4.94a3.453 3.453 0 0 0 4.93 0c1.39-1.39 1.39-3.55 0-4.94zm0 29.38a3.436 3.436 0 0 0-4.93 0c-1.39 1.38-1.39 3.55 0 4.94a3.436 3.436 0 0 0 4.93 0c1.39-1.39 1.39-3.56 0-4.94zm3.65-15.68c-1.91 0-3.47 1.56-3.47 3.46a3.47 3.47 0 0 0 3.47 3.46c1.9 0 3.46-1.56 3.46-3.46s-1.56-3.46-3.46-3.46zM78.22 290.82H0V88.53h161.56l30.65 30.58v96.58l-30.77 30.75H78.22v44.38zm278.14 0H236.02l-30.48-30.57V88.53h181.27v171.78l-30.45 30.51zm405.24 0H621.39l-30.52-30.51V118.95l30.41-30.42h120.3l31.21 31.29v69.73l-52.19 52.2h41v49.07zm-173.29 0h-88.84l-25.2-25.18v25.18h-73.29V88.53h143.98l30.44 30.42v93.68l-32.65 32.64 45.56 45.55zM723.84 60.8c0 .77-.26 1.47-.77 2.11-.51.64-1.28.96-2.3.96h-17.39c-1.02 0-1.81-.4-2.37-1.21-.55-.81-.83-1.68-.83-2.62 0-.81.17-1.47.51-1.98l15.09-24.17c.43-.68.68-1.3.77-1.85.09-.55.13-1.07.13-1.54v-.77c0-1.24-.45-2.27-1.34-3.1-.89-.83-2-1.25-3.33-1.25h-.38c-1.28 0-2.37.42-3.26 1.25-.89.83-1.34 1.87-1.34 3.1v.45c0 1.02-.32 1.8-.96 2.33-.64.53-1.34.8-2.11.8s-1.47-.27-2.11-.8c-.64-.53-.96-1.31-.96-2.33v-.45c0-1.49.29-2.88.86-4.16s1.34-2.38 2.3-3.29c.96-.92 2.1-1.64 3.42-2.17 1.32-.53 2.71-.8 4.16-.8h.38c1.45 0 2.82.25 4.12.74s2.45 1.19 3.45 2.11c1 .92 1.79 2.01 2.37 3.29.58 1.28.86 2.71.86 4.28v1.09c0 .64-.08 1.29-.22 1.95-.15.66-.34 1.28-.58 1.86-.24.58-.47 1.09-.7 1.53-.24.45-.42.8-.54 1.06l-12.6 20.59h12.6c1.02 0 1.79.32 2.3.96.52.63.77 1.31.77 2.03zm28.72-7.03c0 1.45-.28 2.81-.83 4.09a10.513 10.513 0 0 1-5.72 5.6c-1.3.53-2.7.8-4.19.8h-.64c-1.49 0-2.89-.27-4.19-.8a10.513 10.513 0 0 1-5.72-5.6c-.55-1.28-.83-2.64-.83-4.09V29.72c0-1.49.28-2.88.83-4.16a9.621 9.621 0 0 1 2.3-3.29c.98-.92 2.12-1.64 3.42-2.17 1.3-.53 2.7-.8 4.19-.8h.64c1.49 0 2.89.27 4.19.8 1.3.53 2.44 1.26 3.42 2.17.98.92 1.75 2.01 2.3 3.29.55 1.28.83 2.66.83 4.16v24.05zm-6.14-24.05c0-1.28-.45-2.32-1.34-3.13-.9-.81-1.98-1.21-3.26-1.21h-.64c-1.28 0-2.37.4-3.26 1.21-.9.81-1.34 1.85-1.34 3.13v24.04c0 1.24.45 2.28 1.34 3.13.89.85 1.98 1.28 3.26 1.28h.64c1.28 0 2.37-.43 3.26-1.28.89-.85 1.34-1.9 1.34-3.13V29.72zm29.86 31.47c0 1.02-.32 1.79-.96 2.3s-1.34.77-2.11.77-1.47-.26-2.11-.77-.96-1.28-.96-2.3V28.64l-2.49 3.52c-.34.47-.71.81-1.12 1.02-.41.21-.84.32-1.31.32-.85 0-1.61-.3-2.27-.9-.66-.6-.99-1.32-.99-2.17 0-.64.21-1.26.64-1.85l5.69-7.74c.55-.72 1.1-1.16 1.63-1.31.53-.15 1.01-.22 1.44-.22h2.43c.81 0 1.43.31 1.85.93.43.62.64 1.33.64 2.14v38.81zm34.02-38.12c0 .47-.06.94-.19 1.41l-11.51 37.6c-.21.77-.6 1.32-1.15 1.66-.55.34-1.13.51-1.73.51-.94 0-1.71-.3-2.3-.9-.6-.6-.89-1.32-.89-2.17 0-.43.04-.75.13-.96l10.49-34.47h-9.21v2.05c0 1.02-.32 1.79-.96 2.3-.64.51-1.34.77-2.11.77-.77 0-1.47-.26-2.11-.77-.64-.51-.96-1.28-.96-2.3v-5.05c0-.81.3-1.52.89-2.14.6-.62 1.32-.93 2.17-.93h15.86c1.15 0 2.04.32 2.65.96.62.64.93 1.45.93 2.43z"/></symbol><symbol id="logo_bush" viewBox="0 0 87.83 28.93"><path d="M11.27 10.3V2.02C11.27.91 10.36 0 9.24 0 8.12 0 7.22.91 7.22 2.02v8.33L.59 16.98c-.38.38-.59.9-.59 1.44v8.49c0 1.12.9 2.03 2.02 2.03h14.81c1.12 0 2.03-.91 2.03-2.03v-8.85c0-.58-.24-1.12-.67-1.5l-6.92-6.26zm3.54 14.58H4.04v-5.62l5.27-5.27 5.5 4.96v5.93zm73.02-6.83v8.85a2.025 2.025 0 1 1-4.05 0v-7.96l-5.5-4.96-5.27 5.27v7.65c0 1.12-.91 2.03-2.03 2.03-1.12 0-2.02-.91-2.02-2.03v-8.49c0-.54.21-1.05.59-1.43l6.62-6.63V2.02A2.06 2.06 0 0 1 78.22 0c1.12 0 2.03.91 2.03 2.02v8.27l6.92 6.25c.42.39.66.93.66 1.51zm-45.43.37v8.49c0 1.12-.91 2.03-2.03 2.03H24.46c-1.12 0-2.02-.91-2.02-2.03v-8.49a2.02 2.02 0 0 1 4.04 0v6.46h11.87v-6.46c0-1.12.9-2.02 2.02-2.02 1.12-.01 2.03.9 2.03 2.02zm23.1.05v8.43c0 1.12-.91 2.03-2.03 2.03H47.35c-1.12 0-2.02-.91-2.02-2.03 0-1.12.91-2.02 2.02-2.02h14.1V20.5h-14.1c-1.12 0-2.02-.91-2.02-2.03v-8.12c0-1.12.91-2.02 2.02-2.02 1.12 0 2.03.91 2.03 2.02v6.09h14.1c1.11 0 2.02.91 2.02 2.03z"/></symbol><symbol id="logo_carl_cox" viewBox="0 0 109.48 25.77"><path d="M67.31 10.31c2.07-1.2 3.75-2.99 4.81-5.16h2.59a5.15 5.15 0 0 1-5.15 5.15l-2.25.01m15.15-5.15c5.69 0 10.31 4.61 10.31 10.31 0 5.69-4.62 10.31-10.31 10.31-3.08 0-5.84-1.35-7.73-3.49A10.281 10.281 0 0 1 67 25.78c-5.7 0-10.31-4.61-10.31-10.31C56.7 9.77 61.31 5.16 67 5.16h4.26a11.66 11.66 0 0 1-6.06 5.47 5.162 5.162 0 0 0-3.36 4.83 5.15 5.15 0 1 0 10.3 0c.01-5.69 4.63-10.3 10.32-10.3m0 15.46c2.85 0 5.16-2.31 5.16-5.15 0-2.85-2.3-5.15-5.16-5.15-2.84 0-5.15 2.31-5.15 5.15 0 2.84 2.31 5.15 5.15 5.15M25.77 5.16c5.69 0 10.31 4.61 10.31 10.31v10.31c-1.69 0-3.18-.81-4.12-2.07-1.72 1.3-3.87 2.07-6.19 2.07-3.08 0-5.84-1.35-7.73-3.49a10.281 10.281 0 0 1-7.73 3.49C4.62 25.77 0 21.16 0 15.46c0-5.69 4.62-10.3 10.31-10.3h4.27a11.66 11.66 0 0 1-6.06 5.47 5.162 5.162 0 0 0-3.36 4.83 5.15 5.15 0 1 0 10.3 0c0-5.69 4.62-10.3 10.31-10.3m0 15.46a5.15 5.15 0 0 0 5.15-5.15 5.15 5.15 0 0 0-5.15-5.15 5.15 5.15 0 0 0-5.15 5.15c0 2.84 2.3 5.15 5.15 5.15M47.68 5.16c-5.69 0-10.31 4.61-10.31 10.31v10.31c2.85 0 5.15-2.31 5.15-5.16v-5.15c0-2.85 2.31-5.15 5.16-5.15V5.16zm48.84 10.3L89.7 25.51h4.77c.89 0 1.67-.45 2.13-1.13l2.98-4.39 2.99 4.41c.46.67 1.24 1.12 2.13 1.12h4.77l-6.82-10.05 6.82-10.05h-4.77c-.89 0-1.66.44-2.13 1.12l-2.99 4.41-2.98-4.39a2.554 2.554 0 0 0-2.13-1.13H89.7l6.82 10.03zm-85.9-5.15h2.25c2.85 0 5.16-2.31 5.16-5.15h-2.59a12.283 12.283 0 0 1-4.82 5.15M54.12 0a5.16 5.16 0 0 0-5.16 5.16v20.62h5.16V0z"/></symbol><symbol id="logo_drumcode" viewBox="0 0 50.8 37.16"><path d="M27.74 35.96a.24.24 0 0 1-.12-.07l-.08-.13-.02-.14v-1.54h-1.27v1.54c0 .13.02.26.05.39l.07.21c.08.18.2.34.36.49.15.15.31.26.48.33.17.07.36.11.58.11h3.19v-1.16h-3.07l-.17-.03zm-.27-3.77c-.09.02-.18.05-.28.09-.19.08-.35.19-.49.33-.15.16-.27.33-.34.5-.03.06-.05.12-.07.2h4.68v-1.15h-3.19c-.11 0-.21.01-.31.03zm-1.63.91c-.08-.19-.19-.35-.33-.49a1.35 1.35 0 0 0-.5-.34 1.5 1.5 0 0 0-.58-.11h-4.34v4.99h1.27v-3.84h1v3.84h1.34v-3.84h.62l.16.04.11.08c.04.03.07.07.09.12l.02.15v3.46h1.27V33.7c0-.12-.01-.22-.03-.31-.02-.1-.06-.2-.1-.29zm-17.7.01c-.08-.19-.19-.35-.33-.5-.17-.16-.33-.28-.5-.34-.1-.04-.19-.07-.29-.09-.09-.01-.19-.04-.3-.04H2.76v1.16h2.21l.05.01h1.53l.14.04c.05.03.1.05.13.08a.38.38 0 0 1 .12.27v1.9l-.04.16-.08.11c-.04.04-.08.06-.13.08l-.14.02H4.04v-1.9H2.77v3.08h3.95c.13 0 .25 0 .34-.02.09-.03.17-.05.25-.08.18-.08.36-.2.51-.36.16-.16.27-.33.33-.49.07-.17.11-.36.11-.58V33.7c0-.11-.01-.21-.03-.3a.876.876 0 0 0-.09-.29zm5.8 1.97a1.54 1.54 0 0 0-.27-.45l.12-.22c.04-.06.07-.13.09-.21.03-.07.05-.15.06-.23.01-.08.02-.14.02-.18v-.09a1.416 1.416 0 0 0-.12-.59c-.08-.19-.19-.35-.33-.49-.17-.17-.34-.28-.5-.34-.09-.04-.19-.07-.28-.09-.1-.01-.2-.03-.31-.03H8.58v1.15h3.71l.15.04.12.08c.04.04.07.07.09.13l.03.14-.03.15-.08.13a.38.38 0 0 1-.13.09l-.15.02H8.58v3.07h1.23v-1.92h2.59l.13.04.11.09.07.13.02.13v1.53h1.31v-1.53c0-.13-.02-.24-.04-.32-.02-.09-.04-.17-.06-.23zm4.61.52l-.03.16-.08.11c-.04.04-.08.07-.13.08l-.14.03h-2.53v-3.82h-1.35v3.45c0 .14.01 1.54 0 1.54h3.99c.14 0 .25-.01.33-.04.09-.02.17-.05.26-.07.19-.08.35-.19.51-.35.16-.16.27-.32.33-.49.07-.17.11-.36.11-.58v-3.46h-1.26v3.44zm24.77-3.44v3.44c0 .13.01 1.55 0 1.54h4.71v-1.17h-3.45v-.74h3.26v-1.17h-3.27v-.74h3.46v-1.17h-3.19c-.07.01-1.52.02-1.52.01zM.46 4.29h49.87c.25 0 .45-.21.45-.45V.46c0-.25-.2-.46-.45-.46H.46C.22 0 .01.21.01.46v3.38c0 .25.21.45.45.45zm49.89 22.79H.48c-.25 0-.46.2-.46.45v3.39c0 .25.21.45.46.45h49.87c.25 0 .45-.2.45-.45v-3.39c0-.25-.2-.45-.45-.45zM.45 10.39h39.67v10.7H11.48V17.7H26.9c.25 0 .45-.2.45-.45v-3.5c0-.25-.2-.45-.45-.45H7.49c-.25 0-.46.2-.46.45v11.34c0 .25.2.45.46.45h36.53c.25 0 .45-.21.45-.45V6.41c0-.25-.2-.45-.45-.45H.45a.436.436 0 0 0-.45.45v3.54c0 .24.2.44.45.44zM37.1 33.1c-.08-.19-.19-.35-.33-.49a1.35 1.35 0 0 0-.5-.34c-.16-.07-.36-.11-.58-.11h-2.8a1.416 1.416 0 0 0-.59.12c-.19.08-.35.19-.49.33-.15.16-.27.33-.34.5-.07.16-.11.35-.11.58v1.92c0 .13.02.26.05.39l.06.21c.08.18.2.34.35.49.15.15.32.26.48.33.17.07.36.11.58.11h2.8c.11 0 .21-.01.3-.03.09-.02.19-.05.29-.08.09-.04.18-.09.26-.15.08-.05.16-.12.22-.18a1.502 1.502 0 0 0 .43-.78c.02-.09.02-.19.02-.3V33.7c0-.12 0-.22-.02-.31-.01-.1-.04-.2-.08-.29zm-1.22 2.52l-.03.15-.08.13c-.04.04-.08.06-.12.08l-.14.02h-2.54l-.13-.03-.12-.08a.508.508 0 0 1-.09-.13.32.32 0 0 1-.03-.14V33.7l.04-.14a.4.4 0 0 1 .1-.12l.12-.09c.04-.02.08-.04.11-.04h2.54l.14.04.12.08c.04.04.07.07.09.12.02.04.03.09.03.14v1.93zm7.02-2.52c-.08-.19-.19-.35-.33-.49a1.35 1.35 0 0 0-.5-.34c-.1-.04-.2-.07-.29-.09-.1-.01-.19-.03-.3-.03h-3.99v1.15h3.8l.14.04c.06.02.1.05.13.08.04.04.07.07.09.12.02.04.03.09.03.14v1.92l-.04.16-.08.12c-.04.04-.08.06-.13.08l-.14.02h-2.53v-1.91h-1.27v3.07h3.99c.13 0 .25-.01.33-.04.09-.02.18-.05.26-.07.18-.08.35-.19.51-.35.16-.16.27-.32.32-.49.08-.17.12-.36.12-.58v-1.92a1.416 1.416 0 0 0-.12-.59zm6.96-.94a.79.79 0 0 0-.23-.14.692.692 0 0 0-.28-.05c-.09 0-.19.02-.28.05-.09.03-.17.08-.24.14-.06.06-.12.14-.16.22a.73.73 0 0 0-.06.3c0 .11.02.21.06.3.04.09.1.16.16.23.07.06.15.11.24.15.09.03.18.05.28.05.1 0 .19-.02.28-.05.09-.03.17-.08.23-.15a.73.73 0 0 0 .22-.53.73.73 0 0 0-.06-.3.888.888 0 0 0-.16-.22zm-.02.75a.567.567 0 0 1-.29.3c-.07.03-.13.04-.21.04-.07 0-.14-.01-.21-.04a.567.567 0 0 1-.29-.3.538.538 0 0 1-.04-.22c0-.08.01-.16.04-.23a.567.567 0 0 1 .29-.3c.07-.03.13-.04.21-.04a.492.492 0 0 1 .38.16.556.556 0 0 1 .16.41.43.43 0 0 1-.04.22zm-.29-.2c.02-.01.05-.02.07-.04.02-.02.03-.04.05-.06.01-.03.02-.06.02-.1 0-.08-.03-.15-.08-.18-.05-.04-.13-.06-.23-.06h-.3v.8h.16v-.34h.1l.2.34h.17l-.21-.35s.02 0 .05-.01zm-.33-.1v-.21h.18c.02 0 .04.01.05.01.02.01.03.02.04.03.01.01.02.03.02.05 0 .05-.01.08-.04.09-.03.02-.07.02-.12.02h-.13z"/></symbol><symbol id="logo_hardware" viewBox="0 0 143.63 26.11"><path d="M26.11 26.11H0V0h26.11v26.11zM1.15 24.96h23.8V1.16H1.15v23.8zm42.73-4.62h-3.89v-5.99h-4.6v5.99h-3.9V5.43h3.9v5.41h4.6V5.43h3.89v14.91zm11.49-1.87h-5.88l-.87 1.87H44.9v-.55l6.7-14.55h1.63l6.73 14.55v.55h-3.72l-.87-1.87zm-2.97-7.18l-1.68 3.92h3.41l-1.73-3.92zm21.26 8.5v.55H69.4l-2.55-4.38h-1.98v4.38h-3.81V5.43h6.54c5.86.02 6.92 7.07 3.15 9.63l2.91 4.73zM67.59 8.84c-.89-.02-1.83 0-2.73 0v3.73h2.73c2.07 0 2.17-3.71 0-3.73zm12.72 11.5h-5.62V5.43h5.62c9.71.04 9.71 14.87 0 14.91zm-1.8-3.47h1.8c4.75 0 4.75-7.96 0-7.96h-1.8v7.96zm19.31-11.2l2.53 7.93h.06l.66-2.54 1.9-5.62h3.79v.58l-5.18 14.48H99.4l-2.39-7.17h-.06l-2.39 7.17h-2.11L87.21 6.01v-.58h3.86l1.91 5.62.66 2.54h.06l2.49-7.93c.61.01 1.03.01 1.63.01zm17 12.8h-5.88l-.87 1.87h-3.72v-.55l6.71-14.55h1.64l6.73 14.55v.55h-3.73l-.88-1.87zm-2.97-7.18l-1.68 3.92h3.41l-1.73-3.92zm21.26 8.5v.55h-4.26l-2.55-4.38h-1.99v4.38h-3.82V5.43h6.54c5.86.02 6.93 7.07 3.15 9.63l2.93 4.73zm-6.07-10.95c-.9-.02-1.84 0-2.73 0v3.73h2.73c2.07 0 2.18-3.71 0-3.73zm16.41 0h-5.52v2.11H143v3.39h-5.07v2.62h5.71v3.38h-9.5V5.43h9.31v3.41zM18 5.43v3.23L13.93 11l2.67 1.55 1.4-.82v2.65L8.11 8.66V5.43H5.42v15.25H8.1v-3.23l4.07-2.34-2.66-1.54-1.41.81v-2.65l2.29 1.33 7.6 4.39v3.23h2.68V5.43H18z"/></symbol><symbol id="logo_rov" viewBox="0 0 60.82 24.01"><path d="M7.3 14.09H4.75v8.09H0V1.66h8.94c4.9 0 7.68 2.2 7.68 6.04 0 3.13-1.79 4.84-4.46 5.98l4.81 8.5h-5.1L7.3 14.09zm-2.55-3.87h4.66c1.82 0 2.61-.97 2.61-2.35 0-1.38-.79-2.34-2.61-2.34H4.75v4.69zm13.55 2.4c-.34 0-.61-.27-.61-.61 0-.34.27-.61.61-.61h2.06c.34 0 .61.27.61.61 0 .34-.27.61-.61.61H18.3zm.29 3.98a.656.656 0 0 1-.04-.23c0-.24.14-.46.38-.56l1.91-.79a.593.593 0 0 1 .79.33.593.593 0 0 1-.33.79l-1.91.79c-.08.03-.15.05-.23.05a.649.649 0 0 1-.57-.38zm2.25-7.61l-1.91-.79a.603.603 0 0 1-.38-.56c0-.46.46-.72.84-.56l1.91.79a.606.606 0 0 1-.23 1.17c-.08 0-.16-.02-.23-.05zm1.82-3.15L21.2 4.38a.615.615 0 0 1-.18-.43.615.615 0 0 1 .61-.61c.16 0 .31.06.43.18l1.46 1.46c.12.12.18.28.18.43a.615.615 0 0 1-.61.61c-.15 0-.31-.06-.43-.18zm-1.03 14.83a.615.615 0 0 1-.61-.61c0-.16.06-.31.18-.43l1.46-1.46c.12-.12.27-.18.43-.18a.615.615 0 0 1 .61.61c0 .16-.06.31-.18.43l-1.46 1.46c-.11.13-.27.18-.43.18zm2.53-3.11a7.799 7.799 0 0 1-2.3-5.55c0-2.1.82-4.07 2.3-5.55a7.816 7.816 0 0 1 5.55-2.3c2.1 0 4.07.82 5.55 2.3a7.799 7.799 0 0 1 2.3 5.55c0 2.1-.82 4.07-2.3 5.55a7.799 7.799 0 0 1-5.55 2.3c-2.09 0-4.06-.82-5.55-2.3zm10.24-.87A6.596 6.596 0 0 0 36.34 12c0-1.77-.69-3.44-1.94-4.69a6.596 6.596 0 0 0-4.69-1.94c-1.77 0-3.44.69-4.69 1.94A6.596 6.596 0 0 0 23.08 12c0 1.77.69 3.44 1.94 4.69a6.596 6.596 0 0 0 4.69 1.94c1.78.01 3.44-.68 4.69-1.94zm-9.31 6.41a.614.614 0 0 1-.33-.8l.79-1.9c.1-.24.32-.38.56-.38.46 0 .72.46.56.84l-.79 1.91c-.1.24-.32.38-.56.38-.07-.01-.15-.02-.23-.05zm.47-19.49l-.79-1.91a.62.62 0 0 1-.04-.23c0-.24.14-.47.38-.56.08-.03.16-.05.23-.05.24 0 .47.14.57.38l.79 1.91a.593.593 0 0 1-.33.79.616.616 0 0 1-.81-.33zm3.52-.94V.61c0-.34.27-.61.61-.61.33 0 .61.27.61.61v2.06c0 .34-.28.61-.61.61-.34 0-.61-.27-.61-.61zm0 20.73v-2.06c0-.34.27-.61.61-.61.33 0 .61.27.61.61v2.06c0 .34-.28.61-.61.61-.34 0-.61-.27-.61-.61zm4.4-.63l-.79-1.91a.593.593 0 0 1 .33-.79.593.593 0 0 1 .79.33l.79 1.91a.593.593 0 0 1-.33.79c-.07.03-.15.05-.23.05-.23 0-.46-.14-.56-.38zm-.44-18.82a.61.61 0 0 1-.33-.8l.79-1.91c.1-.24.32-.38.57-.38.46 0 .72.46.56.85l-.79 1.9a.632.632 0 0 1-.8.34zm2.82 1.89a.615.615 0 0 1-.18-.43c0-.16.06-.31.18-.43l1.46-1.46c.12-.12.28-.18.43-.18.16 0 .32.06.43.18.12.12.18.27.18.43 0 .15-.06.31-.18.43l-1.46 1.46c-.12.12-.28.18-.43.18-.15 0-.31-.06-.43-.18zm1.46 14.66l-1.46-1.46a.615.615 0 0 1-.18-.43c0-.16.06-.31.18-.43a.62.62 0 0 1 .44-.18c.16 0 .31.06.43.18l1.46 1.46c.12.12.18.27.18.43 0 .16-.06.31-.18.43s-.27.18-.43.18a.666.666 0 0 1-.44-.18zm2.67-3.56l-1.91-.79a.603.603 0 0 1-.38-.56.6.6 0 0 1 .84-.56l1.91.79a.606.606 0 0 1-.23 1.17.856.856 0 0 1-.23-.05zm-2.24-8.27a.656.656 0 0 1-.04-.23c0-.24.14-.46.38-.56L40 7.09c.08-.03.15-.05.23-.05.24 0 .47.14.57.38a.593.593 0 0 1-.33.79L38.55 9c-.08.03-.16.05-.23.05-.24 0-.47-.14-.57-.38zm1.28 3.95c-.34 0-.61-.27-.61-.61 0-.34.27-.61.61-.61h2.06c.34 0 .61.27.61.61 0 .34-.27.61-.61.61h-2.06zm1.74-10.96h5.28l3.99 11.52s.44 1.58.76 2.67c.32-1.09.76-2.67.76-2.67l3.99-11.52h5.28l-7.65 20.52h-4.75L40.77 1.66z"/></symbol><symbol id="social_facebook" viewBox="0.000000 -49.285714 25.714286 25.714286"><path d="M24.291-49.286c.39 0 .726.14 1.005.419.279.279.418.614.418 1.004v22.869c0 .39-.14.725-.418 1.004a1.37 1.37 0 0 1-1.005.419h-6.545v-9.961h3.331l.502-3.884h-3.833v-2.478c0-.625.13-1.094.393-1.406.262-.313.773-.469 1.532-.469l2.042-.017v-3.465c-.703-.1-1.696-.15-2.98-.15-1.518 0-2.731.446-3.64 1.339-.91.892-1.365 2.154-1.365 3.783v2.863h-3.349v3.884h3.349v9.96H1.423c-.39 0-.725-.139-1.004-.418A1.37 1.37 0 0 1 0-24.994v-22.869c0-.39.14-.725.419-1.004a1.37 1.37 0 0 1 1.004-.419zm0 0"/></symbol><symbol id="social_instagram" viewBox="0 0 18.095 18.095"><path d="M9.047 18.095c-2.227 0-2.506-.009-3.38-.05-.888-.039-1.589-.175-2.268-.441a4.842 4.842 0 0 1-1.768-1.155 4.916 4.916 0 0 1-1.145-1.761c-.26-.671-.396-1.371-.436-2.26C.01 11.554 0 11.275 0 9.047S.01 6.54.05 5.666C.09 4.778.226 4.079.489 3.4a4.938 4.938 0 0 1 1.155-1.769A4.942 4.942 0 0 1 3.41.485C4.08.225 4.779.089 5.667.049 6.542.01 6.82 0 9.047 0s2.506.01 3.381.049c.887.04 1.586.176 2.267.44a4.915 4.915 0 0 1 1.769 1.155 4.924 4.924 0 0 1 1.146 1.765c.259.667.396 1.366.436 2.257.039.874.049 1.153.049 3.381s-.01 2.506-.049 3.38c-.041.891-.177 1.59-.441 2.269a5.1 5.1 0 0 1-2.911 2.909c-.677.264-1.376.4-2.266.439-.874.042-1.153.051-3.381.051zm0-16.19c-2.17 0-2.442.009-3.294.047-.671.031-1.185.127-1.663.313a3.044 3.044 0 0 0-1.099.713 3.055 3.055 0 0 0-.723 1.103c-.188.485-.284.999-.315 1.671-.04.853-.048 1.125-.048 3.295s.008 2.441.048 3.292c.031.675.126 1.189.312 1.667.157.417.403.792.712 1.096a3.02 3.02 0 0 0 1.102.724c.333.128.813.279 1.673.318.852.037 1.124.047 3.294.047s2.443-.009 3.295-.047c.671-.032 1.184-.128 1.662-.314a3.193 3.193 0 0 0 1.825-1.823c.187-.478.283-.991.313-1.665.038-.852.047-1.124.047-3.294s-.009-2.443-.047-3.295c-.031-.673-.126-1.186-.312-1.662a3.049 3.049 0 0 0-.713-1.099 3.035 3.035 0 0 0-1.101-.722c-.489-.19-1.003-.286-1.673-.317-.851-.039-1.125-.048-3.295-.048z"/><path d="M9.047 14.051c-2.759 0-5.004-2.244-5.004-5.004s2.244-5.004 5.004-5.004 5.004 2.244 5.004 5.004-2.244 5.004-5.004 5.004zm0-8.102c-1.708 0-3.099 1.39-3.099 3.099s1.39 3.099 3.099 3.099 3.099-1.39 3.099-3.099-1.39-3.099-3.099-3.099z"/><circle cx="13.859" cy="4.236" r=".947"/></symbol><symbol id="social_soundcloud" viewBox="0 0 19.378 10.208"><path d="M16.32 3.629h-.11C15.64 1.47 13.71 0 11.449 0c-.68 0-1.249.11-1.929.34-.11 0-.11.11-.229.11 0 0-.229.229-.229.45v8.39c0 .34.34.68.68.68H16.422c1.7-.11 2.949-1.589 2.949-3.17.119-1.7-1.351-3.171-3.051-3.171zM.909 4.19C.45 4.19 0 4.53 0 5.1v3.289c0 .45.34.909.909.909s.909-.34.909-.909V5.1c-.118-.57-.458-.91-.909-.91zM3.85 1.36c-.45 0-.901.34-.901.909v7.029c0 .45.34.909.909.909s.909-.34.909-.909V2.269c-.118-.459-.458-.909-.917-.909zM6.8 2.04c-.45 0-.909.34-.909.909v6.349c0 .45.34.901.909.901s.909-.339.909-.909V2.949c0-.459-.459-.909-.909-.909z"/></symbol><symbol id="social_spotify" viewBox="0 0 23.586 14.348"><path d="M20.268 8.16C12.485 3.096 2.867 6.309 2.461 6.448a.951.951 0 0 0-.591 1.21.95.95 0 0 0 1.209.592c.372-.127 9.137-3.054 16.151 1.507a.95.95 0 0 0 1.317-.279.953.953 0 0 0-.279-1.318zM23.153 3.721C12.954-2.907 1.122 1.303.626 1.484a.953.953 0 0 0 .654 1.789c.115-.042 11.43-4.07 20.835 2.044a.95.95 0 0 0 1.038-1.596zM17.383 12.597c-2.026-1.319-4.529-1.987-7.44-1.987-2.958 0-5.307.698-5.751.839l.002.007a.952.952 0 0 0 .359 1.837c.076 0 .143-.027.214-.043l.156-.032h.001c.575-.17 2.576-.703 5.018-.703 2.537 0 4.691.565 6.402 1.678a.949.949 0 0 0 1.317-.279.951.951 0 0 0-.278-1.317z"/></symbol><symbol id="social_twitter" viewBox="0 0 17.446 14.285"><path d="M17.446.809l-2.645.33a3.606 3.606 0 0 0-6.144 3.288A10.241 10.241 0 0 1 1.223.659 3.61 3.61 0 0 0 2.34 5.475a3.617 3.617 0 0 1-1.634-.45v.044A3.607 3.607 0 0 0 3.6 8.605a3.608 3.608 0 0 1-1.628.063 3.606 3.606 0 0 0 3.368 2.503 7.235 7.235 0 0 1-4.479 1.544c-.291 0-.578-.016-.86-.05a10.219 10.219 0 0 0 5.528 1.62c6.635 0 10.261-5.494 10.261-10.261 0-.157-.003-.313-.01-.466.732-.841 1.666-2.749 1.666-2.749z"/></symbol><symbol id="social_youtube" viewBox="0 0 16.724 11.744"><path d="M11.61 5.88L6.135 9.096V2.664L11.61 5.88zm5.114 2.982v-5.98S16.724 0 13.842 0H2.881S0 0 0 2.882v5.98s0 2.882 2.881 2.882h10.961s2.882 0 2.882-2.882"/></symbol></svg>