<svg id="Layer_1" data-name="Layer 1" xmlns="http://www.w3.org/2000/svg" viewBox="0 0 68.1 68.12"><defs><style>.cls-1{fill:#fff;}</style></defs><title>TBC</title><path class="cls-1" d="M611-66.52h-68.1v-68.12H611Zm-20.27-26a3.62,3.62,0,0,0,.6-.28,1.79,1.79,0,0,0,.72-1.79,1.44,1.44,0,0,0-1.34-1.31,29.37,29.37,0,0,0-3-.11c-.05,0-.14.11-.15.17-.08.48-.15,1-.23,1.44-.22,1.43-.45,2.86-.68,4.28-.06.41-.12.81-.18,1.24h2.76A2.41,2.41,0,0,0,591.67-91a1.18,1.18,0,0,0-.9-1.44Zm-12.81-9.23a4.07,4.07,0,0,0,.75-.46,1.76,1.76,0,0,0,.5-1.85,1.43,1.43,0,0,0-1.33-1.1c-1-.1-1.94-.09-2.91-.11-.06,0-.15.1-.16.16-.07.37-.12.73-.18,1.09l-.63,4c-.09.62-.19,1.25-.29,1.91h.28c.81,0,1.61,0,2.41,0a3.59,3.59,0,0,0,.8-.11,2.4,2.4,0,0,0,1.71-2.41A1.09,1.09,0,0,0,577.9-101.73Zm-4.13-5.59c.63,0,1.23,0,1.83,0,.06,0,.14-.14.16-.22.14-.83.26-1.65.39-2.48,0-.06.08-.15.13-.15.26,0,.51,0,.78,0l-.44,2.85h1.94l1.12-7.11h-1.82c-.05,0-.13.1-.15.17-.11.7-.21,1.4-.33,2.1,0,.1-.1.24-.17.25a6.17,6.17,0,0,1-.75,0l.39-2.54c-.56,0-1.09,0-1.62,0-.28,0-.36.1-.39.36-.2,1.31-.41,2.62-.62,3.94C574.07-109.22,573.92-108.29,573.77-107.32ZM583.24-96h-1.93l0,.11-.54,3.35c-.08.51-.16,1-.27,1.54a.51.51,0,0,1-.59.43c-.23,0-.34-.24-.28-.59.18-1.28.38-2.56.58-3.84.05-.33.1-.66.15-1h-1.78c-.07,0-.17.12-.18.19-.19,1.1-.38,2.2-.54,3.3a17.15,17.15,0,0,0-.22,2A1.58,1.58,0,0,0,579-88.81a4.22,4.22,0,0,0,.61.07,2.61,2.61,0,0,0,2.82-2.18c.19-1,.33-1.93.48-2.9C583-94.53,583.12-95.24,583.24-96Zm8.7-18.45h-3.6l-1.12,7.1h3.6l.26-1.68h-1.64c0-.29.11-.55.12-.82s.11-.26.3-.25c.4,0,.81,0,1.22,0l.27-1.69h-1.47l.15-1h1.64ZM566.24-93.9c.1-.62.19-1.22.3-1.81,0-.2,0-.27-.2-.31a3.24,3.24,0,0,0-3.05.83A4.89,4.89,0,0,0,561.84-91,2.36,2.36,0,0,0,565-88.83c.35-.09.56-.24.57-.62a2.74,2.74,0,0,1,.08-.37c.08-.37.16-.75.24-1.15a3.84,3.84,0,0,1-.63.33.93.93,0,0,1-1.37-.77,3.46,3.46,0,0,1,.4-2.14A1.19,1.19,0,0,1,566.24-93.9Zm25-6.32c-.23.12-.42.24-.62.32a.92.92,0,0,1-1.36-.61,3.23,3.23,0,0,1,.53-2.54,1.11,1.11,0,0,1,.94-.49,1.12,1.12,0,0,1,.87.4l.35-2.11a6.78,6.78,0,0,0-1.16-.11,3.5,3.5,0,0,0-2.7,1.53,5.39,5.39,0,0,0-.9,3.51,2.61,2.61,0,0,0,.5,1.44,2.54,2.54,0,0,0,3,.67.25.25,0,0,0,.12-.16C590.91-99,591-99.59,591.19-100.22Zm-24.61-5h-4c-.05,0-.15.06-.15.1-.1.55-.18,1.1-.27,1.68h1l-.84,5.34h1.93c0-.07,0-.13.06-.19.26-1.65.52-3.29.76-4.93,0-.18.1-.24.28-.23s.56,0,.87,0Zm-2.2-2.08.85-5.36h1.1l.28-1.74H562.5l-.28,1.75h1l-.84,5.35Zm5.48,18.45h3.4l.26-1.67h-1.44l.86-5.45c-.61,0-1.16,0-1.72,0-.2,0-.25.08-.28.26-.16,1.1-.34,2.19-.51,3.28S570.05-90.09,569.86-88.88Z" transform="translate(-542.88 134.64)"/><path class="cls-1" d="M588.68-90.44l.2-1.31a.77.77,0,0,1,.74.22.57.57,0,0,1,0,.71A.88.88,0,0,1,588.68-90.44Z" transform="translate(-542.88 134.64)"/><path class="cls-1" d="M589.31-94.43c.54,0,.75.13.75.48s-.34.73-.93.69Z" transform="translate(-542.88 134.64)"/><path class="cls-1" d="M575.85-99.7l.2-1.28a.72.72,0,0,1,.74.2.57.57,0,0,1,0,.7A.87.87,0,0,1,575.85-99.7Z" transform="translate(-542.88 134.64)"/><path class="cls-1" d="M576.3-102.51l.18-1.16c.26,0,.56,0,.67.21a.81.81,0,0,1,0,.63C577-102.53,576.66-102.48,576.3-102.51Z" transform="translate(-542.88 134.64)"/></svg>