<svg id="Layer_1" data-name="Layer 1" xmlns="http://www.w3.org/2000/svg" viewBox="0 0 748.73 195.17"><defs><style>.cls-1,.cls-2{fill:#fff;}.cls-2{fill-rule:evenodd;}</style></defs><title>TNT</title><path class="cls-1" d="M159.55-117.78a6.71,6.71,0,0,0-3.12-4.53,5.09,5.09,0,0,0-5.88.56,3,3,0,0,0-1.14,2.13,3.82,3.82,0,0,0,.63,2.21,4.29,4.29,0,0,0,.58.52,1.8,1.8,0,0,0,2.49,0s2-1.82-.79-3.55h0s0,0-.06-.06a.59.59,0,0,1-.07-1,2.26,2.26,0,0,1,1.58-.47,4.91,4.91,0,0,1,4.16,3.17c1,2.79-1.22,5.56-3.84,6.3a5.8,5.8,0,0,1-2.42.08c-3.18-.54-4.69-3.8-5.35-6.61-.05-.24-.51-2-.57-2.69,7.56-2.28,6.4-8.32,6.4-8.32-1.26-3.86-5.23-2.11-5.23-2.11a4.47,4.47,0,0,0-1.68,1.2,9.6,9.6,0,0,0-2,4.16,7.18,7.18,0,0,0-1.38-1.54c-.76-.87-1.17-.35-1.17-.35a1.16,1.16,0,0,1-.8.37s-4.71-.3-6.33,6a21.42,21.42,0,0,0-.43,2.57,6.27,6.27,0,0,0-.28-1.66,2.84,2.84,0,0,0-2.72-2.19,2.3,2.3,0,0,0-1.34.56,3.1,3.1,0,0,1-1.06.81,1.81,1.81,0,0,1-1.71-.3s-.41-.53-1.17.34c0,0-2.29,1.92-1.28,2.45,0,0,.87.23.9,1.61v9.56s.18,2.07-.46,2.55c-.48.35-.72-.32-.76-.47a6.27,6.27,0,0,1-.17-1.69l0-8s0-5.11-4.9-3c-4.14,1.79-3.26,4.79-3.26,4.79a2.46,2.46,0,0,0,.54.94,1.16,1.16,0,0,0,1.6.18,1.54,1.54,0,0,0,.53-.52h0l0,0,.07-.14c.76-1.42-.12-1.63-.12-1.63a1.74,1.74,0,0,1-.68-.3c-.92-1.35,1.22-2.15,1.83-2.35a1.36,1.36,0,0,1,1.74,1.19,2.3,2.3,0,0,1,0,.78c-.43,2-1.64,3.19-3.18,4.46a7.71,7.71,0,0,0-3.1,5.56c-.08,2.12,1.53,5.2,4,3.91.43-.22,1.72-1,1.71-1.57,0,0,.11.61.87.18l7.09-3.19h0c.17-.07.32-.23-.13-.5a.88.88,0,0,1-.42-.84v-10.49a2.93,2.93,0,0,1,1.48-2.84c2.18-.93,2.5,2.55,2.48,3.81-.05,2.22,0,4.44,0,6.65a5.09,5.09,0,0,1-.22,1.78c-.39,1.29.13.86.13.86s2.51-1.16,2.67-1.19.31-.28-.09-.4-.46-.77-.46-.77c0-.16,0-.32,0-.48,0-1.39,0-2.78,0-4.18.46,2.22,1.75,4.07,4.86,3.83a2.23,2.23,0,0,0,1.26-.46v6.23a5.68,5.68,0,0,1-.16,1.64h0a3.05,3.05,0,0,1-3.81,2.46.6.6,0,0,1-.24-1,2.13,2.13,0,0,0,.48-1.83,1.34,1.34,0,0,0-1.92-.92,1.45,1.45,0,0,0-.79,1.66.41.41,0,0,0-.07.11,6.15,6.15,0,0,0-4.2-1,13.53,13.53,0,0,0-2.87.64,19.47,19.47,0,0,0-5.55,3.07c-.82.62-1.64,1.23-2.49,1.81-2.82,2-6.17,3.8-9.7,3.8a4.19,4.19,0,0,1-4.19-4.19v-12.14c1.41-.63,2-.45,2.16-.31a2,2,0,0,1,.52,1.37v10.18s.18,2.1-.47,2.57c0,0-1,1.26.56.51l3.08-1.4s.75-.14,0-.56a.88.88,0,0,1-.42-.84v-10.48s.08-2.89,1.91-2.35c0,0,2.63,1.07,3.23-1s-.79-2.46-1.93-2.16a3.85,3.85,0,0,0-1.89,1.35,1.79,1.79,0,0,1-2.57.35h0a.33.33,0,0,0-.15-.11.54.54,0,0,0-.4,0,5.54,5.54,0,0,0-1.65.9c-1.51.72-1.92-.32-2-.84v-5.69a2,2,0,0,0,0-.25c0-.25,0-1.45-1.42-.32a29.4,29.4,0,0,0-2.85,3.68v0a16.2,16.2,0,0,1-2.6,3.29,5.77,5.77,0,0,0-2.35-5.46c-2.82-2-6.68-.64-8.54,2-2.09,2.92-3.29,7.29-1.4,10.5a10.16,10.16,0,0,0,5.68,4.57c6.39,2.36,6.71,6.71,6.71,6.71l0,0c0,.17,0,.33.05.5a6.9,6.9,0,0,1-4,6.71A6,6,0,0,1,85-92.85c-.46-3.11,2-6.9,5.51-6.16a1.78,1.78,0,0,1,.7.37.71.71,0,0,1,.05,1.06,2.33,2.33,0,0,0,1,3.81,2,2,0,0,0,2.54-1.62,4.08,4.08,0,0,0-1.09-3A8.37,8.37,0,0,0,91.15-100a6,6,0,0,0-2.59-.24s-6.9,1.09-5.7,9.08a8.29,8.29,0,0,0,8.78,6.53c7.56-.21,9.36-5.84,9.48-8.11A11.77,11.77,0,0,0,100.5-98h0a13.12,13.12,0,0,0-3.27-4.91c-3-2.87-7.39-4.06-8.79-6a7.16,7.16,0,0,1-.71-5.37,5,5,0,0,1,4.2-3.7,3.64,3.64,0,0,1,4,2.13c.45,1.2-.5,1.65-1.51,1.35s-1.51.86-1.51.86a1.79,1.79,0,0,0,1.36,2.56,3.57,3.57,0,0,0,.46,0,2.41,2.41,0,0,0,.87-.3c1.62-.82,2.91-2.9,3.52-3.73a3.79,3.79,0,0,1,1.22-1.24c.49-.09.45.65.45.65s0,2.13,0,2.12a3.05,3.05,0,0,1-1.14,2.8c-.62.58-.63.89-.63.89,0,.46.36.29.36.29l1.42-.67v8.89s-.3,5.88,3.14,7.54v0s2.12,1.3,6.66,0l0,0a3.76,3.76,0,0,0-1.38,2.08,4.28,4.28,0,0,0,.85,3.57h0s3.32,4.08,8.28,0a23.37,23.37,0,0,1,4.93-3.55c.86-.34,1.61-.39,1.64.42a1.94,1.94,0,0,0,2.65,1.93,1.62,1.62,0,0,0,.78-2.37A3.34,3.34,0,0,0,126-93.15c2.57-.18,5.54-.87,7.32-2.72a5.43,5.43,0,0,0,1.31-2.28,6.19,6.19,0,0,0,0-2.35l.18,0a4.92,4.92,0,0,0,2,.08,3.76,3.76,0,0,0,.6-.06c4.94-1,4.82-8.9,4.82-8.9v0c0-.36,0-.72,0-1.09v-13.81a1.59,1.59,0,0,1,.78-1.56c-.14.8-.23,1.61-.29,2.37l0,.53a15.33,15.33,0,0,0,1.69,6.91,16.77,16.77,0,0,0,1.12,2,9,9,0,0,0,6.77,4.21C158.63-109.43,159.92-115,159.55-117.78ZM119.82-105.9c-.79.89-1.86.3-2.17-.72-.55-1.89.48-3.4,1.61-4.78.43-.53.88-1,1.34-1.54v4.69A3.74,3.74,0,0,1,119.82-105.9ZM136-115.23a11,11,0,0,1-.49-3,19.52,19.52,0,0,1,.19-3.5,10.53,10.53,0,0,1,.79-3.18c.39-.8,1.06-1.78,2.08-1.76.58,0,.84.52.84,1v9.56c-.05.8-.32,2.74-1.71,2.66l-.17,0A2.83,2.83,0,0,1,136-115.23ZM120-90.81c-1.45,1-2.79,2.38-4.55,2.77-2.38.52-4-1.55-3.82-3.78.17-2.89,4.25-2.33,6.11-2a34.55,34.55,0,0,0,7,.68h.19A13.53,13.53,0,0,0,120-90.81Zm8.44-4.66a11.85,11.85,0,0,1-5.44,1.1,27,27,0,0,1-3.11-.25,33,33,0,0,0-3.84-.32,19,19,0,0,0-3,.15,34.74,34.74,0,0,0,6-3.43h0l.32-.2c2.45-1.67,6-4.34,9.16-3.58a3.72,3.72,0,0,1,2.67,3.07C131.21-97.28,129.75-96.1,128.41-95.47Zm19-35.2c1.29-.49,2.15,1.17,2.15,1.17,1.5,4-3.9,6.38-3.9,6.38C145.28-129.53,147.43-130.67,147.43-130.67Z" transform="translate(-32.7 132.48)"/><path class="cls-1" d="M132.87-103.67s-.71-2,1.39-2.22,1.56,2.13,1.56,2.13a2.3,2.3,0,0,1-.71,1.07" transform="translate(-32.7 132.48)"/><path class="cls-1" d="M49.19-108.34v3.75h1.45v.34H46.18v-.34H47.6v-8.26H46.18v-.34h4.61a3.47,3.47,0,0,1,2.35.69,2.18,2.18,0,0,1,.8,1.71,2.24,2.24,0,0,1-.8,1.74,4,4,0,0,1-2.65.71Zm0-4.51v4.16h.86a4.91,4.91,0,0,0,1.12-.11,1.34,1.34,0,0,0,.77-.6,2.75,2.75,0,0,0,.33-1.51,2.45,2.45,0,0,0-.29-1.33,1.15,1.15,0,0,0-.67-.52,4.29,4.29,0,0,0-1-.09Z" transform="translate(-32.7 132.48)"/><path class="cls-1" d="M58.44-107H55.6l-.92,2.45h1.66v.34H53.1v-.34h1.23l3.26-8.81h.21l3.13,8.81h1.2v.34H57.87v-.34h1.44Zm-2.72-.34h2.6L57.06-111h0Z" transform="translate(-32.7 132.48)"/><path class="cls-1" d="M69.43-112.85H68v-.34h3.19v.34h-1.4v5.41a6.08,6.08,0,0,1-.18,1.73,1.87,1.87,0,0,1-.65.94,2.91,2.91,0,0,1-1.11.56,5.49,5.49,0,0,1-1.35.17,3.9,3.9,0,0,1-2.15-.46,1.88,1.88,0,0,1-.83-1.14,7.85,7.85,0,0,1-.16-1.8v-5.41H62v-.34h4.27v.34h-1.4v5.25a12.51,12.51,0,0,0,.09,1.71,1.8,1.8,0,0,0,.55,1,2,2,0,0,0,1.39.41,3,3,0,0,0,1.39-.32,1.75,1.75,0,0,0,.85-.85,5.23,5.23,0,0,0,.25-2Z" transform="translate(-32.7 132.48)"/><path class="cls-1" d="M75.3-112.85v8.26h2a4.23,4.23,0,0,0,.91-.08,1.53,1.53,0,0,0,.66-.42,2.36,2.36,0,0,0,.5-.8,11.89,11.89,0,0,0,.38-1.28h.31l-.25,2.92H72.3v-.34h1.41v-8.26H72.3v-.34h4.49v.34Z" transform="translate(-32.7 132.48)"/><path class="cls-1" d="M164.72-108.34v3.75h1.45v.34h-4.45v-.34h1.42v-8.26h-1.42v-.34h4.61a3.49,3.49,0,0,1,2.35.69,2.2,2.2,0,0,1,.79,1.71,2.24,2.24,0,0,1-.8,1.74,4,4,0,0,1-2.65.71Zm0-4.51v4.16h.87a5,5,0,0,0,1.12-.11,1.4,1.4,0,0,0,.77-.6,2.85,2.85,0,0,0,.32-1.51,2.46,2.46,0,0,0-.28-1.33,1.22,1.22,0,0,0-.67-.52,4.35,4.35,0,0,0-1-.09Z" transform="translate(-32.7 132.48)"/><path class="cls-1" d="M172.32-104.59v-8.26h-1.41v-.34h4.9a6.3,6.3,0,0,1,1.58.16,2.12,2.12,0,0,1,1.07.69,1.84,1.84,0,0,1,.44,1.21,1.69,1.69,0,0,1-.65,1.37,5,5,0,0,1-2.22.8v0a3.88,3.88,0,0,1,1.84.85,2.76,2.76,0,0,1,.72,2.15,2,2,0,0,0,.2,1.11.73.73,0,0,0,.57.25,2.29,2.29,0,0,0,.56-.1v.33a3.54,3.54,0,0,1-1.12.2,1.83,1.83,0,0,1-1.56-.61,2,2,0,0,1-.44-1.21l0-1.13a2.11,2.11,0,0,0-.38-1.17c-.25-.39-.82-.58-1.71-.58h-.83v4.25h1.4v.34h-4.4v-.34Zm1.59-8.26v3.7h1.2a5.73,5.73,0,0,0,1.18-.1,1,1,0,0,0,.65-.55,3,3,0,0,0,.24-1.39,2,2,0,0,0-.25-1.14,1,1,0,0,0-.59-.44,3.92,3.92,0,0,0-.92-.08Z" transform="translate(-32.7 132.48)"/><path class="cls-1" d="M184.13-112.85V-109h.81a2.86,2.86,0,0,0,.72-.08,1,1,0,0,0,.54-.45,2.34,2.34,0,0,0,.27-1.15h.35v3.79h-.35a2.18,2.18,0,0,0-.42-1.42,1.55,1.55,0,0,0-1.11-.35h-.81v4.09H186a2.81,2.81,0,0,0,2.14-.65,3.31,3.31,0,0,0,.71-2h.34l-.09,3h-7.93v-.34h1.42v-8.26h-1.42v-.34h7.61l.15,2.38h-.34a2.53,2.53,0,0,0-.71-1.56,2.69,2.69,0,0,0-1.8-.48Z" transform="translate(-32.7 132.48)"/><path class="cls-1" d="M196.08-113.29l0,2.32h-.31c-.44-1.39-1.23-2.09-2.35-2.09a2,2,0,0,0-1.46.52,1.52,1.52,0,0,0-.51,1.07,1.09,1.09,0,0,0,.43.87,3.43,3.43,0,0,0,1.57.56,7,7,0,0,1,1.74.48,2.36,2.36,0,0,1,1,.94,2.77,2.77,0,0,1,.41,1.52,3,3,0,0,1-.85,2.19,2.87,2.87,0,0,1-2.13.87,3.45,3.45,0,0,1-2.06-.77l-.63.56h-.23v-2.5H191a3.85,3.85,0,0,0,1.1,1.78,2.39,2.39,0,0,0,1.55.59,2.42,2.42,0,0,0,1.53-.55,1.71,1.71,0,0,0,.69-1.39,1.62,1.62,0,0,0-.48-1.19,2.77,2.77,0,0,0-1.57-.67,7.22,7.22,0,0,1-1.66-.43,2.24,2.24,0,0,1-1-.85,2.32,2.32,0,0,1-.41-1.33,2.62,2.62,0,0,1,.72-1.81,2.48,2.48,0,0,1,2-.8,3.2,3.2,0,0,1,1.92.65,2.27,2.27,0,0,0,.43-.54Z" transform="translate(-32.7 132.48)"/><path class="cls-1" d="M201.08-112.85V-109h.81a2.92,2.92,0,0,0,.72-.08,1,1,0,0,0,.54-.45,2.58,2.58,0,0,0,.27-1.15h.34v3.79h-.34a2.18,2.18,0,0,0-.42-1.42,1.55,1.55,0,0,0-1.11-.35h-.81v4.09h1.82a2.82,2.82,0,0,0,2.15-.65,3.31,3.31,0,0,0,.71-2h.34l-.09,3h-7.93v-.34h1.42v-8.26h-1.42v-.34h7.61l.15,2.38h-.34a2.65,2.65,0,0,0-.71-1.56,2.74,2.74,0,0,0-1.81-.48Z" transform="translate(-32.7 132.48)"/><path class="cls-1" d="M215.38-112.85V-104h-.27l-5.89-8.85h0v8.3h1.51v.34h-3.18v-.34h1.33v-8.26h-1.42v-.34h3.41l4.17,6.27h0v-5.93h-1.48v-.34h3.17v.34Z" transform="translate(-32.7 132.48)"/><path class="cls-1" d="M217.86-113.19h7.63l.23,3h-.34a4.72,4.72,0,0,0-.83-2.12,1.72,1.72,0,0,0-1.36-.58h-.72v8.26h1.6v.34h-4.79v-.34h1.61v-8.26h-.73a1.73,1.73,0,0,0-1.36.58,4.84,4.84,0,0,0-.83,2.12h-.34Z" transform="translate(-32.7 132.48)"/><path class="cls-1" d="M232.24-113.29l0,2.32H232c-.45-1.39-1.23-2.09-2.36-2.09a2,2,0,0,0-1.45.52,1.53,1.53,0,0,0-.52,1.07,1.1,1.1,0,0,0,.44.87,3.43,3.43,0,0,0,1.57.56,6.75,6.75,0,0,1,1.73.48,2.38,2.38,0,0,1,1,.94,2.77,2.77,0,0,1,.41,1.52,3,3,0,0,1-.86,2.19,2.86,2.86,0,0,1-2.12.87,3.43,3.43,0,0,1-2.06-.77l-.63.56h-.23v-2.5h.29a3.77,3.77,0,0,0,1.1,1.78,2.36,2.36,0,0,0,1.54.59,2.38,2.38,0,0,0,1.53-.55,1.69,1.69,0,0,0,.7-1.39,1.62,1.62,0,0,0-.48-1.19,2.8,2.8,0,0,0-1.57-.67,7.22,7.22,0,0,1-1.66-.43,2.24,2.24,0,0,1-1-.85,2.32,2.32,0,0,1-.41-1.33,2.62,2.62,0,0,1,.72-1.81,2.47,2.47,0,0,1,2-.8,3.23,3.23,0,0,1,1.93.65,2.27,2.27,0,0,0,.43-.54Z" transform="translate(-32.7 132.48)"/><rect class="cls-1" x="9.36" y="33.14" width="44.87" height="0.24"/><rect class="cls-1" x="9.36" y="13.97" width="44.87" height="0.24"/><rect class="cls-1" x="126.39" y="13.97" width="77.41" height="0.24"/><rect class="cls-1" x="101.44" y="33.14" width="102.9" height="0.24"/><path class="cls-1" d="M423.09-21.74H355V-89.86h68.1Zm-20.27-26a3.67,3.67,0,0,0,.6-.29,1.78,1.78,0,0,0,.72-1.78,1.45,1.45,0,0,0-1.34-1.32c-1-.11-2-.08-3-.1-.05,0-.14.1-.15.17-.08.48-.15,1-.22,1.43l-.69,4.29c-.06.4-.12.8-.18,1.23h2.77a2.4,2.4,0,0,0,2.42-2.16,1.19,1.19,0,0,0-.9-1.45ZM390-56.95a4.14,4.14,0,0,0,.75-.45,1.8,1.8,0,0,0,.49-1.86,1.46,1.46,0,0,0-1.33-1.1c-1-.1-1.94-.08-2.91-.1a.22.22,0,0,0-.16.16c-.07.36-.12.73-.18,1.09-.21,1.32-.42,2.64-.62,4-.1.63-.2,1.26-.3,1.92H386c.81,0,1.61,0,2.41,0a3.09,3.09,0,0,0,.8-.11,2.39,2.39,0,0,0,1.71-2.4A1.1,1.1,0,0,0,390-56.95Zm-4.14-5.58h1.83c.06,0,.15-.14.16-.23.14-.82.26-1.65.39-2.47,0-.06.09-.16.13-.16h.78l-.44,2.85h1.95l1.12-7.1c-.64,0-1.23,0-1.83,0-.05,0-.13.1-.14.16-.12.7-.22,1.41-.34,2.11,0,.09-.1.24-.17.25a6.14,6.14,0,0,1-.75,0l.39-2.54c-.56,0-1.09,0-1.61,0-.29,0-.36.09-.4.35-.2,1.32-.41,2.63-.62,3.94C386.18-64.44,386-63.5,385.88-62.53Zm9.47,11.33h-1.93l0,.11-.54,3.35c-.08.52-.16,1-.27,1.54a.5.5,0,0,1-.59.43c-.23,0-.34-.23-.28-.58.19-1.28.39-2.56.58-3.84,0-.33.1-.66.15-1-.63,0-1.21,0-1.78,0-.07,0-.17.11-.18.19-.19,1.1-.38,2.19-.54,3.3a16.74,16.74,0,0,0-.21,2A1.58,1.58,0,0,0,391.1-44a3.15,3.15,0,0,0,.61.06,2.58,2.58,0,0,0,2.82-2.18c.19-1,.33-1.93.49-2.9C395.13-49.75,395.23-50.45,395.35-51.2Zm8.7-18.45h-3.6l-1.12,7.1h3.6l.26-1.67h-1.64c0-.3.11-.56.12-.82s.11-.26.3-.26h1.22l.28-1.7H402l.15-1h1.64Zm-25.7,20.54c.1-.63.19-1.22.3-1.81,0-.2,0-.27-.2-.31a3.24,3.24,0,0,0-3.05.82A4.87,4.87,0,0,0,374-46.18,2.35,2.35,0,0,0,377.08-44c.35-.08.56-.24.57-.61,0-.13.06-.25.08-.37.08-.38.16-.75.25-1.15-.24.12-.43.25-.64.33a.93.93,0,0,1-1.37-.78,3.44,3.44,0,0,1,.4-2.13A1.18,1.18,0,0,1,378.35-49.11Zm24.95-6.33c-.23.12-.42.24-.62.32a.91.91,0,0,1-1.36-.61,3.23,3.23,0,0,1,.53-2.54,1.15,1.15,0,0,1,.94-.49,1.19,1.19,0,0,1,.88.4l.34-2.11a6.74,6.74,0,0,0-1.16-.1,3.47,3.47,0,0,0-2.7,1.53,5.39,5.39,0,0,0-.9,3.51,2.58,2.58,0,0,0,.5,1.43,2.52,2.52,0,0,0,3,.67.23.23,0,0,0,.12-.15C403-54.19,403.16-54.8,403.3-55.44Zm-24.61-5h-4a.21.21,0,0,0-.15.1c-.1.54-.18,1.09-.27,1.67h1.05l-.84,5.34h1.93a.82.82,0,0,0,.06-.19c.26-1.64.52-3.28.77-4.93,0-.18.09-.24.27-.23s.56,0,.87,0Zm-2.19-2.08.84-5.35h1.1l.28-1.75h-4.11l-.28,1.76h1.06l-.85,5.34ZM382-44.09h3.39l.26-1.68h-1.44l.86-5.44c-.6,0-1.16,0-1.72,0-.2,0-.25.09-.28.27-.16,1.09-.34,2.18-.51,3.27S382.17-45.3,382-44.09Z" transform="translate(-32.7 132.48)"/><path class="cls-1" d="M400.79-45.66,401-47a.75.75,0,0,1,.74.22.56.56,0,0,1,0,.7A.86.86,0,0,1,400.79-45.66Z" transform="translate(-32.7 132.48)"/><path class="cls-1" d="M401.42-49.64c.54,0,.75.13.75.48s-.34.73-.93.68Z" transform="translate(-32.7 132.48)"/><path class="cls-1" d="M388-54.91l.2-1.29a.75.75,0,0,1,.75.2.6.6,0,0,1,0,.71A.9.9,0,0,1,388-54.91Z" transform="translate(-32.7 132.48)"/><path class="cls-1" d="M388.41-57.72l.18-1.17c.27,0,.56,0,.68.21a.86.86,0,0,1,0,.63C389.08-57.74,388.77-57.69,388.41-57.72Z" transform="translate(-32.7 132.48)"/><path class="cls-2" d="M635.79-74H637c3.58.31,3.07,4.7,3,8.66,5,.17,11.49-.63,15.36,1.16a11.14,11.14,0,0,1,4,3.35c.87,1.17,2.33,3.67,2.2,5.08-.08.88-1.24,1.67-1.73,2.66a11.13,11.13,0,0,0-.35,7.85,28.66,28.66,0,0,0,1.73,3,3.9,3.9,0,0,1-2.31,1.39h-1.27c-4.75-.6-2.4-8.1-3-12.94a5,5,0,0,0-2.77-4c-3.06-1.31-7.59.26-11.79-.35-.2,2.08-.11,4.75-.11,7.51,0,4.65.84,9.22-2.89,9.82h-1.27a3.92,3.92,0,0,1-3-2.66V-71.38A4,4,0,0,1,635.79-74Z" transform="translate(-32.7 132.48)"/><path class="cls-1" d="M687.63-51.32a77.69,77.69,0,0,1-.12-10.35c0-.53,0-1.07,0-1.6l-.26-.2A9.91,9.91,0,0,0,685-64.71a15,15,0,0,0-2.54-.73l-.4,0-.4,0H667.29a2.4,2.4,0,0,0-1.28.34,3.58,3.58,0,0,0-1,.84,3.74,3.74,0,0,0-.65,1.13,3.59,3.59,0,0,0-.23,1.27,3.9,3.9,0,0,0,.52,2,3,3,0,0,0,1.57,1.34,6.23,6.23,0,0,0,.84.3h14.09l.55.15.75.22a2.31,2.31,0,0,1,1,.73,1.75,1.75,0,0,1,.42,1.11v7.83H667.7c-.22,0-.36-.06-.42-.2a1.29,1.29,0,0,1-.08-.45.77.77,0,0,1,.17-.53.61.61,0,0,1,.5-.2h11.67l.58-.21a3.7,3.7,0,0,0,1.68-1.33,3.52,3.52,0,0,0,.58-2,3.92,3.92,0,0,0-.22-1.28,4.25,4.25,0,0,0-.63-1.15,3.35,3.35,0,0,0-1-.84,2.5,2.5,0,0,0-1.3-.34h-12a4.34,4.34,0,0,0-1,.15c-.39.1-.73.2-1,.31a7.18,7.18,0,0,0-3.86,2.87A8.26,8.26,0,0,0,660-48.91a8,8,0,0,0,1.22,4.37,7.51,7.51,0,0,0,3.47,2.89c.28.11.67.23,1.16.37a4.52,4.52,0,0,0,1.19.21h21.19a2,2,0,0,0,.93-.27,3.94,3.94,0,0,0,.94-.71,4.27,4.27,0,0,0,.72-.92,1.93,1.93,0,0,0,.27-.94V-44A12.06,12.06,0,0,1,687.63-51.32Z" transform="translate(-32.7 132.48)"/><path class="cls-2" d="M691.25-74h1.15c4.27.47,3.12,6.49,3.12,12.13,0,5.86-1.06,12.43,3,13.63,1.09.32,3.29.11,5.08.11,3.68,0,6.66.26,8-2,1.44-2.44.73-6-1.39-7.28a8.06,8.06,0,0,0-2.77-.8c-2.68-.31-7.06.51-8.66-.35-2.37-1.27-2.16-5.38.23-6.47,1.76-.8,8.09-.59,10.16-.23,2.83.49,4.14,1.49,6.12,2.66-.19,6-.19,12.89,0,18.94A15.61,15.61,0,0,1,709-40.88H698.76a12,12,0,0,1-10.4-10.51c-.51-5,0-10.28,0-15.36C688.36-70.68,688-73.45,691.25-74Z" transform="translate(-32.7 132.48)"/><path class="cls-2" d="M726.79-73.87H728c3.57.28,3.06,4.64,3,8.55,2.33.42,5.28-.34,6.93.58,2.37,1.31,2.37,5.48-.35,6.58-1.9.77-3.81-.09-6.35.23a86.57,86.57,0,0,0,0,9.93,29.64,29.64,0,0,0,4.27.12,11.06,11.06,0,0,0,1.16,3.81c.56,1,1.47,1.69,1.73,2.66a7.74,7.74,0,0,0-1.27.69h-7c-2.43-.52-5.66-2.85-6.13-6.35s0-8,0-12.25v-6.23c0-2.18-.36-4.74,0-6S725.92-73.53,726.79-73.87Z" transform="translate(-32.7 132.48)"/><path class="cls-2" d="M768.61-73.87h1.15c3.58.31,3.06,4.72,3,8.66,3.51-.06,8.35-.5,8.67,3v1.38c-.41,3.41-4.68,3-8.55,2.89v9.82c3.44.49,8.36-.5,8.55,3.23v1.27a4.14,4.14,0,0,1-2.54,2.89h-7a8,8,0,0,1-6.24-6.93c-.5-5.37,0-12.29,0-18C765.6-70.17,765.3-73.39,768.61-73.87Z" transform="translate(-32.7 132.48)"/><path class="cls-2" d="M720.21-40.88h-1.27a3.83,3.83,0,0,1-2.89-2.43c-.67-2.51-.11-6.49-.11-9.81v-5c0-1.68-.27-3.71.11-5,.86-2.84,6.25-3.06,6.93,0,.34,1.49,0,3.44,0,5v14.9A4.06,4.06,0,0,1,720.21-40.88Z" transform="translate(-32.7 132.48)"/><path class="cls-2" d="M764.56-40.72H743.19c-3.75-1-6.12-3.32-6.46-6.81A7.86,7.86,0,0,1,739.84-55c2.44-1.64,5.89-1.5,10.4-1.5,1.92,0,4.81-.32,6.12.23,2.82,1.19,2.46,6.34-.69,6.93-2.69.5-6.91,0-9.7,0-.77,0-2.33-.36-2.08,1.15,4.85.54,10.7.08,15.94.23v-8.31c-1.43-2.46-5.49-1.73-9.48-1.73-2.25,0-4.9.41-6.93,0-3.13-.65-3.36-5.8-.46-6.94,1.38-.53,4.84-.23,7.16-.23,2.49,0,5.34-.13,7.4,0S764-63.58,764.45-62a18.11,18.11,0,0,1,0,3.7c0,6.34-.79,13,2.19,15.93A5.48,5.48,0,0,1,764.56-40.72Z" transform="translate(-32.7 132.48)"/><path class="cls-1" d="M144.38,33.42V62.3H138.3V33.42h-3.68V27.61h13.53v5.81Zm9.67,28.88h-6l3.78-34.69h8.76l3.21,34.69h-6s-.39-6.07-.48-8.71h-2.73C154.52,56.23,154.05,62.3,154.05,62.3Zm2.38-23.46c-.09-2.34-.39-7.15-.39-7.15s-.26,4.77-.35,7.15c0,.22-.86,10-.86,10.19h2.29C157.12,48.86,156.43,39.06,156.43,38.84ZM166,62.3V27.61h6.2v29H179V62.3Zm15.35,0V27.61h12.36v5.81h-6.33v8.67h5.77v5.43h-5.77v9.1h6.38V62.3Zm21.21.39c-4.17,0-6.94-2-6.94-5.76v-4.3h5.59V56c0,1.26.52,1.65,1.26,1.65s1.26-.52,1.26-2.43a9.71,9.71,0,0,0-2.43-7.2c-.91-1.21-1.6-2-2.65-3.29-2.34-2.87-3.16-5.12-3.16-9.5,0-4.86,2.9-7.89,7.15-7.89,4.73,0,6.64,3.12,6.81,7,0,.61.09,3.6.09,3.6h-5.64l0-3.08c0-1.35-.26-2.13-1.22-2.13s-1.34.7-1.34,2.48a8.55,8.55,0,0,0,2.3,6.15c1.08,1.3,1.91,2.26,2.73,3.39a14.43,14.43,0,0,1,3.3,10C209.64,60.05,207,62.69,202.57,62.69Z" transform="translate(-32.7 132.48)"/><path class="cls-1" d="M42.45,33.42V62.3H36.38V33.42H32.7V27.61H46.22v5.81Zm6,28.88V27.61H60.84v5.81H54.51v8.67h5.76v5.43H54.51v9.1h6.37V62.3Zm14.7,0V27.61h6.2v29h6.81V62.3Zm15.35,0V27.61h6.2v29h6.81V62.3Z" transform="translate(-32.7 132.48)"/><path class="cls-1" d="M106.52,62.3l-3.25-15.57V62.3H97.72V27.61H103l3.38,15.31V27.61H112V62.3Zm23-28c.08,1.34.08,7,.08,10.4,0,3.73,0,8.81-.08,10.84-.22,4.64-2.39,7.2-7.37,7.2s-7.16-2.42-7.33-6.8c0-1.22-.09-7.81-.09-11s0-9.54.09-10.23c.13-4.08,2-7.25,7.33-7.25C127,27.39,129.2,29.82,129.51,34.25Zm-6,21.16c0-1.35.09-7.81.09-10.45,0-2.3,0-8.59,0-9.89,0-1.69-.34-2.25-1.3-2.25s-1.21.73-1.3,2.29c0,1.3,0,7.55,0,9.93s0,8.94,0,10.37c.09,1.17.3,1.86,1.3,1.86S123.39,56.49,123.48,55.41Z" transform="translate(-32.7 132.48)"/></svg>