<svg id="Layer_1" data-name="Layer 1" xmlns="http://www.w3.org/2000/svg" viewBox="0 0 176.94 35.39"><defs><style>.cls-1{fill:#fff;}</style></defs><title>TNT</title><path class="cls-1" d="M357.83-124.43v28.88h-6.07v-28.88h-3.69v-5.81H361.6v5.81Zm9.67,28.88h-5.94l3.77-34.69h8.76l3.21,34.69h-6s-.39-6.07-.47-8.72h-2.74C368-101.62,367.5-95.55,367.5-95.55ZM369.88-119c-.08-2.34-.39-7.16-.39-7.16s-.26,4.77-.34,7.16c0,.22-.87,10-.87,10.19h2.3C370.58-109,369.88-118.79,369.88-119Zm9.59,23.46v-34.69h6.2v29h6.81v5.68Zm15.35,0v-34.69h12.36v5.81h-6.33v8.67h5.76v5.42h-5.76v9.11h6.37v5.68Zm21.2.39c-4.16,0-6.94-2-6.94-5.77v-4.29h5.6v3.34c0,1.26.52,1.65,1.26,1.65s1.25-.52,1.25-2.43a9.71,9.71,0,0,0-2.43-7.2c-.91-1.22-1.6-2-2.64-3.3-2.34-2.86-3.17-5.11-3.17-9.49,0-4.86,2.91-7.9,7.16-7.9,4.73,0,6.63,3.13,6.81,7,0,.61.08,3.6.08,3.6h-5.63l-.05-3.07c0-1.35-.26-2.13-1.21-2.13s-1.35.69-1.35,2.47a8.61,8.61,0,0,0,2.3,6.16c1.09,1.3,1.91,2.26,2.73,3.38a14.47,14.47,0,0,1,3.3,10C423.09-97.81,420.49-95.16,416-95.16Z" transform="translate(-246.15 130.55)"/><path class="cls-1" d="M255.91-124.43v28.88h-6.07v-28.88h-3.69v-5.81h13.53v5.81Zm6,28.88v-34.69h12.36v5.81H268v8.67h5.77v5.42H268v9.11h6.38v5.68Zm14.7,0v-34.69h6.2v29h6.81v5.68Zm15.35,0v-34.69h6.2v29H305v5.68Z" transform="translate(-246.15 130.55)"/><path class="cls-1" d="M320-95.55l-3.25-15.57v15.57h-5.55v-34.69h5.29l3.38,15.3v-15.3h5.55v34.69Zm23-28.06c.09,1.35.09,7,.09,10.41,0,3.73,0,8.8-.09,10.84-.22,4.64-2.38,7.2-7.37,7.2s-7.16-2.43-7.33-6.81c0-1.21-.09-7.8-.09-11s.05-9.54.09-10.24c.13-4.07,2-7.24,7.33-7.24C340.45-130.46,342.66-128,343-123.61Zm-6,21.16c.05-1.34.09-7.8.09-10.45,0-2.3,0-8.58,0-9.88-.05-1.7-.35-2.26-1.3-2.26s-1.22.74-1.3,2.3c-.05,1.3-.05,7.54-.05,9.93s0,8.93.05,10.36c.08,1.17.3,1.87,1.3,1.87S336.85-101.36,336.93-102.45Z" transform="translate(-246.15 130.55)"/></svg>